<?xml version="1.0" encoding="UTF-8"?>
<svg version="1.1" xmlns="http://www.w3.org/2000/svg" width="252" height="247">
<path d="M0 0 C14.11199916 12.0209305 24.05985138 28.51077397 25.875 47.14941406 C26.3005484 53.23598377 26.49218947 59.32236825 26.609375 65.421875 C29.579375 66.081875 32.549375 66.741875 35.609375 67.421875 C33.629375 61.481875 33.629375 61.481875 31.609375 55.421875 C36.53974547 56.65446762 37.51005986 58.23556052 40.33984375 62.21875 C42.19783737 65.44308354 42.609375 67.70648286 42.609375 71.421875 C40.08951178 73.94173822 38.01747364 74.20968674 34.53125 74.50390625 C9.7080531 73.80699832 -15.63384639 56.54410459 -36.390625 44.421875 C-27.90930251 50.75139097 -19.4195859 56.88617822 -10.390625 62.421875 C-9.67777344 62.89753906 -8.96492188 63.37320313 -8.23046875 63.86328125 C3.62152114 71.53467506 17.53639704 76.2369157 30.609375 81.421875 C30.279375 82.081875 29.949375 82.741875 29.609375 83.421875 C28.371875 83.586875 27.134375 83.751875 25.859375 83.921875 C22.75430643 84.58406704 21.85195245 85.06404308 20.0390625 87.73828125 C19.18350537 89.5390497 18.37401615 91.3625922 17.6171875 93.20703125 C16.609375 95.421875 16.609375 95.421875 14.609375 96.421875 C14.939375 97.081875 15.269375 97.741875 15.609375 98.421875 C14.43810222 101.14005602 13.20894217 103.73187864 11.859375 106.359375 C11.31796875 107.45282227 11.31796875 107.45282227 10.765625 108.56835938 C7.54523452 114.9332978 7.54523452 114.9332978 4.609375 117.421875 C3.949375 117.421875 3.289375 117.421875 2.609375 117.421875 C2.939375 120.391875 3.269375 123.361875 3.609375 126.421875 C0.20049517 127.27409496 -2.19497131 127.52971255 -5.640625 127.484375 C-7.208125 127.46375 -8.775625 127.443125 -10.390625 127.421875 C-5.770625 127.751875 -1.150625 128.081875 3.609375 128.421875 C3.609375 129.411875 3.609375 130.401875 3.609375 131.421875 C-6.29754379 137.77395823 -14.89299524 138.39632471 -26.390625 138.421875 C-23.090625 138.751875 -19.790625 139.081875 -16.390625 139.421875 C-16.390625 143.421875 -16.390625 143.421875 -18.3046875 145.61328125 C-21.31160013 148.24324662 -24.33253604 150.85186226 -27.390625 153.421875 C-27.98407715 153.93395508 -28.5775293 154.44603516 -29.18896484 154.97363281 C-31.01031708 156.54004411 -32.85240104 158.0778353 -34.703125 159.609375 C-35.27691895 160.1031665 -35.85071289 160.59695801 -36.44189453 161.10571289 C-39.14084958 163.28010981 -40.89535509 164.39933346 -44.39453125 164.55859375 C-48.26923959 163.08852839 -50.99996898 160.80154032 -54.015625 158.046875 C-54.62172607 157.50885254 -55.22782715 156.97083008 -55.85229492 156.41650391 C-57.10142714 155.30351911 -58.34549382 154.1848235 -59.58447266 153.06054688 C-61.26278324 151.53786228 -62.95486301 150.03248718 -64.65234375 148.53125 C-78.08771161 136.55920311 -89.61458858 122.74647033 -98.765625 107.234375 C-103.58163542 99.24372913 -109.41825702 95.7886991 -117.359375 91.23828125 C-124.46577309 86.97993703 -131.94592024 81.57070084 -136.390625 74.421875 C-136.060625 73.431875 -135.730625 72.441875 -135.390625 71.421875 C-134.441875 72.2675 -133.493125 73.113125 -132.515625 73.984375 C-124.43760116 80.84909882 -115.61350874 86.16602744 -106.34277344 91.25073242 C-100.74474769 94.39110242 -96.06120248 98.02263736 -91.390625 102.421875 C-91.390625 102.091875 -91.390625 101.761875 -91.390625 101.421875 C-91.22956547 99.90043764 -91.06192844 98.37969304 -90.890625 96.859375 C-90.7978125 96.03308594 -90.705 95.20679687 -90.609375 94.35546875 C-90.50109375 93.39833984 -90.50109375 93.39833984 -90.390625 92.421875 C-87.750625 92.091875 -85.110625 91.761875 -82.390625 91.421875 C-81.07435808 87.80214098 -80.390625 85.32620369 -80.390625 81.421875 C-78.080625 80.431875 -75.770625 79.441875 -73.390625 78.421875 C-74.70935162 78.81839417 -76.02059601 79.23986191 -77.328125 79.671875 C-78.05902344 79.90390625 -78.78992188 80.1359375 -79.54296875 80.375 C-81.59718079 81.25947965 -81.59718079 81.25947965 -82.01953125 83.46875 C-82.20322266 84.43554688 -82.20322266 84.43554688 -82.390625 85.421875 C-83.380625 85.916875 -83.380625 85.916875 -84.390625 86.421875 C-84.390625 87.741875 -84.390625 89.061875 -84.390625 90.421875 C-90.49334735 89.94856155 -95.22361019 87.19876262 -100.515625 84.359375 C-101.45051758 83.86276367 -102.38541016 83.36615234 -103.34863281 82.85449219 C-110.33424306 79.09636472 -116.97923058 75.10636133 -123.390625 70.421875 C-124.26460937 69.7928125 -125.13859375 69.16375 -126.0390625 68.515625 C-132.83887602 63.45330327 -132.83887602 63.45330327 -134.390625 59.421875 C-134.92633929 53.31473214 -134.92633929 53.31473214 -133.265625 50.546875 C-130.71677794 49.01756677 -128.31824027 48.74716559 -125.390625 48.421875 C-126.390625 51.421875 -126.390625 51.421875 -128.015625 52.734375 C-129.72051094 54.45493255 -129.72051094 54.45493255 -129.328125 57.484375 C-128.69261595 60.53038561 -128.69261595 60.53038561 -126.328125 61.796875 C-125.3690625 62.10625 -125.3690625 62.10625 -124.390625 62.421875 C-124.390625 63.081875 -124.390625 63.741875 -124.390625 64.421875 C-123.82859375 64.69773437 -123.2665625 64.97359375 -122.6875 65.2578125 C-120.30443706 66.46555528 -117.9727242 67.74364309 -115.640625 69.046875 C-114.44179687 69.71589844 -114.44179687 69.71589844 -113.21875 70.3984375 C-112.31382813 70.90503906 -112.31382813 70.90503906 -111.390625 71.421875 C-111.71417969 70.45507812 -112.03773437 69.48828125 -112.37109375 68.4921875 C-113.62399746 64.08099159 -113.73269324 59.86008557 -113.703125 55.296875 C-113.70183594 54.46953857 -113.70054688 53.64220215 -113.69921875 52.78979492 C-113.58908003 45.68378209 -112.44782136 39.24246055 -110.390625 32.421875 C-113.360625 32.916875 -113.360625 32.916875 -116.390625 33.421875 C-117.050625 32.101875 -117.710625 30.781875 -118.390625 29.421875 C-117.62878906 28.97199219 -116.86695312 28.52210937 -116.08203125 28.05859375 C-108.4796308 23.32251657 -101.95151966 18.33889969 -97.390625 10.421875 C-97.60562697 7.60184917 -98.22371782 6.62729922 -100.015625 4.421875 C-100.69625 3.431875 -100.69625 3.431875 -101.390625 2.421875 C-100.9765625 0.296875 -100.9765625 0.296875 -100.390625 -1.578125 C-98.97359987 -1.43581692 -97.5570154 -1.28911754 -96.140625 -1.140625 C-94.95726563 -1.01880859 -94.95726563 -1.01880859 -93.75 -0.89453125 C-91.390625 -0.578125 -91.390625 -0.578125 -89.36328125 0.1484375 C-87.28155848 0.64648341 -87.28155848 0.64648341 -85.33984375 -0.80078125 C-84.22029297 -1.71150391 -84.22029297 -1.71150391 -83.078125 -2.640625 C-58.93551684 -20.4449083 -23.2643341 -18.48512025 0 0 Z M-110.390625 72.421875 C-109.400625 73.411875 -108.410625 74.401875 -107.390625 75.421875 C-106.730625 75.091875 -106.070625 74.761875 -105.390625 74.421875 C-107.865625 73.431875 -107.865625 73.431875 -110.390625 72.421875 Z M-103.390625 76.421875 C-100.80739376 79.4101425 -97.83527263 80.91617047 -94.328125 82.671875 C-93.26464844 83.21328125 -92.20117188 83.7546875 -91.10546875 84.3125 C-90.20957031 84.67859375 -89.31367187 85.0446875 -88.390625 85.421875 C-87.730625 85.091875 -87.070625 84.761875 -86.390625 84.421875 C-88.84632675 83.08348767 -91.30492416 81.75101268 -93.765625 80.421875 C-94.46429688 80.0403125 -95.16296875 79.65875 -95.8828125 79.265625 C-99.4335196 77.16462756 -99.4335196 77.16462756 -103.390625 76.421875 Z M-66.390625 77.421875 C-65.730625 78.081875 -65.070625 78.741875 -64.390625 79.421875 C-64.390625 78.761875 -64.390625 78.101875 -64.390625 77.421875 C-65.050625 77.421875 -65.710625 77.421875 -66.390625 77.421875 Z M-74.390625 83.421875 C-72.410625 84.081875 -70.430625 84.741875 -68.390625 85.421875 C-68.390625 84.761875 -68.390625 84.101875 -68.390625 83.421875 C-66.6271875 83.2053125 -66.6271875 83.2053125 -64.828125 82.984375 C-61.00850228 82.50777324 -57.19952481 81.97733956 -53.390625 81.421875 C-53.720625 80.761875 -54.050625 80.101875 -54.390625 79.421875 C-61.93571097 79.15347273 -67.64424874 79.78921086 -74.390625 83.421875 Z M-53.390625 81.421875 C-52.730625 82.741875 -52.070625 84.061875 -51.390625 85.421875 C-52.36 85.380625 -53.329375 85.339375 -54.328125 85.296875 C-58.83952224 85.27838567 -63.03900152 86.31670078 -67.390625 87.421875 C-67.720625 88.741875 -68.050625 90.061875 -68.390625 91.421875 C-66.26714024 93.17634137 -66.26714024 93.17634137 -63.390625 94.421875 C-60.18540193 93.87804897 -60.18540193 93.87804897 -56.953125 92.546875 C-47.19502472 88.8832671 -38.78066111 92.69147093 -29.625 96.71484375 C-27.25868693 97.70439647 -27.25868693 97.70439647 -24.390625 96.421875 C-26.040625 95.431875 -27.690625 94.441875 -29.390625 93.421875 C-26.750625 93.091875 -24.110625 92.761875 -21.390625 92.421875 C-25.1628562 89.9070542 -27.03233114 90.30776039 -31.515625 90.484375 C-37.4250938 90.60033063 -43.22033514 90.64540536 -48.390625 87.421875 C-49.765625 84.796875 -49.765625 84.796875 -50.390625 82.421875 C-51.380625 82.091875 -52.370625 81.761875 -53.390625 81.421875 Z M-0.390625 93.421875 C1.919375 93.421875 4.229375 93.421875 6.609375 93.421875 C6.279375 92.761875 5.949375 92.101875 5.609375 91.421875 C2.42447493 91.1445249 2.42447493 91.1445249 -0.390625 93.421875 Z M-43.328125 95.734375 C-47.48552141 98.02518527 -51.82934718 99.17305913 -56.390625 100.421875 C-53.73402286 103.07847714 -51.54532896 103.2121975 -47.890625 103.984375 C-41.56437017 105.33500241 -41.56437017 105.33500241 -39.390625 106.421875 C-37.03080687 105.48608505 -34.69431236 104.48839692 -32.390625 103.421875 C-33.97606908 99.14117597 -36.8593833 97.12665588 -40.390625 94.421875 C-41.64267283 94.32840031 -41.64267283 94.32840031 -43.328125 95.734375 Z M-88.390625 104.421875 C-84.61243165 108.43123888 -80.59477907 111.59457943 -76.078125 114.734375 C-75.43294922 115.18876953 -74.78777344 115.64316406 -74.12304688 116.11132812 C-72.54865358 117.21923452 -70.97006854 118.32118025 -69.390625 119.421875 C-68.730625 119.091875 -68.070625 118.761875 -67.390625 118.421875 C-70.50992542 116.08084315 -73.6369697 113.7503857 -76.765625 111.421875 C-77.65507813 110.75414062 -78.54453125 110.08640625 -79.4609375 109.3984375 C-80.31171875 108.76679688 -81.1625 108.13515625 -82.0390625 107.484375 C-82.82458496 106.89785156 -83.61010742 106.31132813 -84.41943359 105.70703125 C-86.27766629 104.23982583 -86.27766629 104.23982583 -88.390625 104.421875 Z M-3.390625 110.421875 C-2.730625 111.081875 -2.070625 111.741875 -1.390625 112.421875 C-1.390625 111.761875 -1.390625 111.101875 -1.390625 110.421875 C-2.050625 110.421875 -2.710625 110.421875 -3.390625 110.421875 Z M-31.390625 111.421875 C-31.720625 112.081875 -32.050625 112.741875 -32.390625 113.421875 C-31.730625 113.421875 -31.070625 113.421875 -30.390625 113.421875 C-30.720625 112.761875 -31.050625 112.101875 -31.390625 111.421875 Z M0.609375 114.421875 C1.609375 116.421875 1.609375 116.421875 1.609375 116.421875 Z M-67.390625 119.421875 C-64.24962236 122.89636681 -60.76262309 125.17139416 -56.703125 127.421875 C-56.0838916 127.76855225 -55.4646582 128.11522949 -54.82666016 128.47241211 C-46.89954067 133.59649484 -46.89954067 133.59649484 -38.1484375 135.01171875 C-37.56835938 134.81707031 -36.98828125 134.62242187 -36.390625 134.421875 C-37.39480469 134.009375 -38.39898437 133.596875 -39.43359375 133.171875 C-47.73895957 129.68835445 -55.3725734 125.85675489 -62.9140625 120.92578125 C-65.19263507 119.24885884 -65.19263507 119.24885884 -67.390625 119.421875 Z M-44.390625 119.421875 C-43.730625 120.081875 -43.070625 120.741875 -42.390625 121.421875 C-41.400625 121.091875 -40.410625 120.761875 -39.390625 120.421875 C-41.040625 120.091875 -42.690625 119.761875 -44.390625 119.421875 Z M-39.390625 121.421875 C-35.390625 122.421875 -35.390625 122.421875 -35.390625 122.421875 Z M-27.390625 124.421875 C-27.390625 124.751875 -27.390625 125.081875 -27.390625 125.421875 C-25.740625 125.421875 -24.090625 125.421875 -22.390625 125.421875 C-22.390625 125.091875 -22.390625 124.761875 -22.390625 124.421875 C-24.040625 124.421875 -25.690625 124.421875 -27.390625 124.421875 Z M-22.390625 125.421875 C-22.390625 125.751875 -22.390625 126.081875 -22.390625 126.421875 C-20.740625 126.421875 -19.090625 126.421875 -17.390625 126.421875 C-17.390625 126.091875 -17.390625 125.761875 -17.390625 125.421875 C-19.040625 125.421875 -20.690625 125.421875 -22.390625 125.421875 Z M-36.390625 135.421875 C-34.905625 136.411875 -34.905625 136.411875 -33.390625 137.421875 C-32.730625 137.091875 -32.070625 136.761875 -31.390625 136.421875 C-33.040625 136.091875 -34.690625 135.761875 -36.390625 135.421875 Z " fill="#F18B2B" transform="translate(178.390625,21.578125)"/>
<path d="M0 0 C-1 3 -1 3 -2.625 4.3125 C-4.32988594 6.03305755 -4.32988594 6.03305755 -3.9375 9.0625 C-3.30199095 12.10851061 -3.30199095 12.10851061 -0.9375 13.375 C-0.298125 13.58125 0.34125 13.7875 1 14 C1 14.66 1 15.32 1 16 C1.52078125 16.24492188 2.0415625 16.48984375 2.578125 16.7421875 C5.73285514 18.38061187 8.73352103 20.24881638 11.75 22.125 C12.35199219 22.49753906 12.95398438 22.87007812 13.57421875 23.25390625 C15.05042343 24.16774724 16.52534154 25.08366598 18 26 C17.67 25.34 17.34 24.68 17 24 C18.35931641 23.34644531 18.35931641 23.34644531 19.74609375 22.6796875 C26.86537853 19.21556324 33.49713606 15.5371476 40 11 C41.90815802 9.7164263 43.8251743 8.4459413 45.75 7.1875 C46.63171875 6.60355469 47.5134375 6.01960938 48.421875 5.41796875 C51.1241289 3.93172911 52.91673156 3.13048315 56 3 C58.5078125 4.2578125 58.5078125 4.2578125 61.125 6.125 C70.14139405 12.6195305 70.14139405 12.6195305 80.59375 14.75390625 C82.87813965 14.03818027 84.61446532 13.21818305 86.625 11.9375 C90 10 90 10 93 10 C93 10.66 93 11.32 93 12 C97.41920448 13.79005751 101.87756253 15.44258234 106.3671875 17.046875 C108.28115569 17.73976556 110.1779118 18.48078033 112.0625 19.25 C114.88958173 19.9718081 116.6597346 19.95005191 119.52734375 19.78125 C125.5715704 19.73960725 130.10227874 21.70661288 135.5 24.25 C137.25988174 25.04805568 139.02029729 25.84493526 140.78125 26.640625 C142.06128906 27.2274707 142.06128906 27.2274707 143.3671875 27.82617188 C147.52639483 29.68053657 151.75710598 31.34796017 156 33 C155.67 33.66 155.34 34.32 155 35 C153.7625 35.165 152.525 35.33 151.25 35.5 C148.14493143 36.16219204 147.24257745 36.64216808 145.4296875 39.31640625 C144.57413037 41.1171747 143.76464115 42.9407172 143.0078125 44.78515625 C142 47 142 47 140 48 C140.33 48.66 140.66 49.32 141 50 C139.82872722 52.71818102 138.59956717 55.31000364 137.25 57.9375 C136.70859375 59.03094727 136.70859375 59.03094727 136.15625 60.14648438 C132.93585952 66.5114228 132.93585952 66.5114228 130 69 C129.34 69 128.68 69 128 69 C128.33 71.97 128.66 74.94 129 78 C125.59112017 78.85221996 123.19565369 79.10783755 119.75 79.0625 C118.1825 79.041875 116.615 79.02125 115 79 C121.93 79.495 121.93 79.495 129 80 C129 80.99 129 81.98 129 83 C119.09308121 89.35208323 110.49762976 89.97444971 99 90 C102.3 90.33 105.6 90.66 109 91 C109 95 109 95 107.0859375 97.19140625 C104.07902487 99.82137162 101.05808896 102.42998726 98 105 C97.40654785 105.51208008 96.8130957 106.02416016 96.20166016 106.55175781 C94.38030792 108.11816911 92.53822396 109.6559603 90.6875 111.1875 C89.82680908 111.92818726 89.82680908 111.92818726 88.94873047 112.68383789 C86.24977542 114.85823481 84.49526991 115.97745846 80.99609375 116.13671875 C77.12138541 114.66665339 74.39065602 112.37966532 71.375 109.625 C70.76889893 109.08697754 70.16279785 108.54895508 69.53833008 107.99462891 C68.28919786 106.88164411 67.04513118 105.7629485 65.80615234 104.63867188 C64.12784176 103.11598728 62.43576199 101.61061218 60.73828125 100.109375 C47.30291339 88.13732811 35.77603642 74.32459533 26.625 58.8125 C21.80898958 50.82185413 15.97236798 47.3668241 8.03125 42.81640625 C0.92485191 38.55806203 -6.55529524 33.14882584 -11 26 C-10.505 24.515 -10.505 24.515 -10 23 C-9.05125 23.845625 -8.1025 24.69125 -7.125 25.5625 C0.95302384 32.42722382 9.77711626 37.74415244 19.04785156 42.82885742 C24.64587731 45.96922742 29.32942252 49.60076236 34 54 C34 53.67 34 53.34 34 53 C34.16105953 51.47856264 34.32869656 49.95781804 34.5 48.4375 C34.63921875 47.19806641 34.63921875 47.19806641 34.78125 45.93359375 C34.8534375 45.29550781 34.925625 44.65742187 35 44 C37.64 43.67 40.28 43.34 43 43 C44.31626692 39.38026598 45 36.90432869 45 33 C47.31 32.01 49.62 31.02 52 30 C50.68127338 30.39651917 49.37002899 30.81798691 48.0625 31.25 C47.33160156 31.48203125 46.60070312 31.7140625 45.84765625 31.953125 C43.79344421 32.83760465 43.79344421 32.83760465 43.37109375 35.046875 C43.18740234 36.01367188 43.18740234 36.01367188 43 37 C42.01 37.495 42.01 37.495 41 38 C41 39.32 41 40.64 41 42 C34.89727765 41.52668655 30.16701481 38.77688762 24.875 35.9375 C23.94010742 35.44088867 23.00521484 34.94427734 22.04199219 34.43261719 C15.05638194 30.67448972 8.41139442 26.68448633 2 22 C0.68902344 21.05640625 0.68902344 21.05640625 -0.6484375 20.09375 C-7.44825102 15.03142827 -7.44825102 15.03142827 -9 11 C-9.54565702 4.77951002 -9.54565702 4.77951002 -7.6875 2.125 C-5.08162401 0.38774934 -3.11698611 0 0 0 Z M22 28 C24.58323124 30.9882675 27.55535237 32.49429547 31.0625 34.25 C32.12597656 34.79140625 33.18945312 35.3328125 34.28515625 35.890625 C35.18105469 36.25671875 36.07695313 36.6228125 37 37 C37.66 36.67 38.32 36.34 39 36 C36.54429825 34.66161267 34.08570084 33.32913768 31.625 32 C30.92632812 31.6184375 30.22765625 31.236875 29.5078125 30.84375 C25.9571054 28.74275256 25.9571054 28.74275256 22 28 Z M59 29 C59.66 29.66 60.32 30.32 61 31 C61 30.34 61 29.68 61 29 C60.34 29 59.68 29 59 29 Z M51 35 C52.98 35.66 54.96 36.32 57 37 C57 36.34 57 35.68 57 35 C58.7634375 34.7834375 58.7634375 34.7834375 60.5625 34.5625 C64.38212272 34.08589824 68.19110019 33.55546456 72 33 C71.67 32.34 71.34 31.68 71 31 C63.45491403 30.73159773 57.74637626 31.36733586 51 35 Z M72 33 C72.66 34.32 73.32 35.64 74 37 C73.030625 36.95875 72.06125 36.9175 71.0625 36.875 C66.55110276 36.85651067 62.35162348 37.89482578 58 39 C57.67 40.32 57.34 41.64 57 43 C59.12348476 44.75446637 59.12348476 44.75446637 62 46 C65.20522307 45.45617397 65.20522307 45.45617397 68.4375 44.125 C78.19560028 40.4613921 86.60996389 44.26959593 95.765625 48.29296875 C98.13193807 49.28252147 98.13193807 49.28252147 101 48 C99.35 47.01 97.7 46.02 96 45 C98.64 44.67 101.28 44.34 104 44 C100.2277688 41.4851792 98.35829386 41.88588539 93.875 42.0625 C87.9655312 42.17845563 82.17028986 42.22353036 77 39 C75.625 36.375 75.625 36.375 75 34 C74.01 33.67 73.02 33.34 72 33 Z M125 45 C127.31 45 129.62 45 132 45 C131.67 44.34 131.34 43.68 131 43 C127.81509993 42.7226499 127.81509993 42.7226499 125 45 Z M82.0625 47.3125 C77.90510359 49.60331027 73.56127782 50.75118413 69 52 C71.65660214 54.65660214 73.84529604 54.7903225 77.5 55.5625 C83.82625483 56.91312741 83.82625483 56.91312741 86 58 C88.35981813 57.06421005 90.69631264 56.06652192 93 55 C91.41455592 50.71930097 88.5312417 48.70478088 85 46 C83.74795217 45.90652531 83.74795217 45.90652531 82.0625 47.3125 Z M37 56 C40.77819335 60.00936388 44.79584593 63.17270443 49.3125 66.3125 C49.95767578 66.76689453 50.60285156 67.22128906 51.26757812 67.68945312 C52.84197142 68.79735952 54.42055646 69.89930525 56 71 C56.66 70.67 57.32 70.34 58 70 C54.88069958 67.65896815 51.7536553 65.3285107 48.625 63 C47.73554687 62.33226562 46.84609375 61.66453125 45.9296875 60.9765625 C45.07890625 60.34492188 44.228125 59.71328125 43.3515625 59.0625 C42.56604004 58.47597656 41.78051758 57.88945313 40.97119141 57.28515625 C39.11295871 55.81795083 39.11295871 55.81795083 37 56 Z M122 62 C122.66 62.66 123.32 63.32 124 64 C124 63.34 124 62.68 124 62 C123.34 62 122.68 62 122 62 Z M94 63 C93.67 63.66 93.34 64.32 93 65 C93.66 65 94.32 65 95 65 C94.67 64.34 94.34 63.68 94 63 Z M126 66 C127 68 127 68 127 68 Z M58 71 C61.14100264 74.47449181 64.62800191 76.74951916 68.6875 79 C69.3067334 79.34667725 69.9259668 79.69335449 70.56396484 80.05053711 C78.49108433 85.17461984 78.49108433 85.17461984 87.2421875 86.58984375 C87.82226562 86.39519531 88.40234375 86.20054687 89 86 C87.99582031 85.5875 86.99164063 85.175 85.95703125 84.75 C77.65166543 81.26647945 70.0180516 77.43487989 62.4765625 72.50390625 C60.19798993 70.82698384 60.19798993 70.82698384 58 71 Z M81 71 C81.66 71.66 82.32 72.32 83 73 C83.99 72.67 84.98 72.34 86 72 C84.35 71.67 82.7 71.34 81 71 Z M86 73 C90 74 90 74 90 74 Z M98 76 C98 76.33 98 76.66 98 77 C99.65 77 101.3 77 103 77 C103 76.67 103 76.34 103 76 C101.35 76 99.7 76 98 76 Z M103 77 C103 77.33 103 77.66 103 78 C104.65 78 106.3 78 108 78 C108 77.67 108 77.34 108 77 C106.35 77 104.7 77 103 77 Z M89 87 C90.485 87.99 90.485 87.99 92 89 C92.66 88.67 93.32 88.34 94 88 C92.35 87.67 90.7 87.34 89 87 Z " fill="#0F1B3B" transform="translate(53,70)"/>
<path d="M0 0 C-1 3 -1 3 -2.625 4.3125 C-4.32988594 6.03305755 -4.32988594 6.03305755 -3.9375 9.0625 C-3.30199095 12.10851061 -3.30199095 12.10851061 -0.9375 13.375 C-0.298125 13.58125 0.34125 13.7875 1 14 C1 14.66 1 15.32 1 16 C1.52078125 16.24492188 2.0415625 16.48984375 2.578125 16.7421875 C5.73285514 18.38061187 8.73352103 20.24881638 11.75 22.125 C12.35199219 22.49753906 12.95398438 22.87007812 13.57421875 23.25390625 C15.05042343 24.16774724 16.52534154 25.08366598 18 26 C17.67 25.34 17.34 24.68 17 24 C18.35931641 23.34644531 18.35931641 23.34644531 19.74609375 22.6796875 C26.86537853 19.21556324 33.49713606 15.5371476 40 11 C41.90815802 9.7164263 43.8251743 8.4459413 45.75 7.1875 C46.63171875 6.60355469 47.5134375 6.01960938 48.421875 5.41796875 C51.1241289 3.93172911 52.91673156 3.13048315 56 3 C58.5078125 4.2578125 58.5078125 4.2578125 61.125 6.125 C70.14139405 12.6195305 70.14139405 12.6195305 80.59375 14.75390625 C82.87813965 14.03818027 84.61446532 13.21818305 86.625 11.9375 C90 10 90 10 93 10 C93 10.66 93 11.32 93 12 C97.41920448 13.79005751 101.87756253 15.44258234 106.3671875 17.046875 C108.28115569 17.73976556 110.1779118 18.48078033 112.0625 19.25 C114.88958173 19.9718081 116.6597346 19.95005191 119.52734375 19.78125 C125.5715704 19.73960725 130.10227874 21.70661288 135.5 24.25 C137.25988174 25.04805568 139.02029729 25.84493526 140.78125 26.640625 C142.06128906 27.2274707 142.06128906 27.2274707 143.3671875 27.82617188 C147.52639483 29.68053657 151.75710598 31.34796017 156 33 C155.67 33.66 155.34 34.32 155 35 C153.7625 35.165 152.525 35.33 151.25 35.5 C148.14493143 36.16219204 147.24257745 36.64216808 145.4296875 39.31640625 C144.57413037 41.1171747 143.76464115 42.9407172 143.0078125 44.78515625 C142 47 142 47 140 48 C140.33 48.66 140.66 49.32 141 50 C139.82872722 52.71818102 138.59956717 55.31000364 137.25 57.9375 C136.70859375 59.03094727 136.70859375 59.03094727 136.15625 60.14648438 C134.40397217 63.60977263 132.87586393 66.33987711 130 69 C126.58841744 67.86280581 125.88145399 66.95657056 124 64 C124 63.34 124 62.68 124 62 C123.42894531 61.72285156 122.85789063 61.44570312 122.26953125 61.16015625 C120.01009876 60.00516236 117.85724748 58.75283915 115.6875 57.4375 C112.47127352 55.48944078 109.24929406 53.55293542 106.01171875 51.640625 C105.32827393 51.23529541 104.6448291 50.82996582 103.94067383 50.41235352 C102.57103216 49.60021639 101.19978784 48.79077563 99.8269043 47.98413086 C98.20120996 47.01699859 96.59807681 46.01211531 95 45 C95 44.67 95 44.34 95 44 C96.98 43.67 98.96 43.34 101 43 C99.99839844 43.03480469 98.99679688 43.06960937 97.96484375 43.10546875 C82.92415247 43.4756779 82.92415247 43.4756779 76.8125 38.0625 C75 36 75 36 73.3125 33.75 C69.78319533 31.07917484 66.27728075 31.6709784 62 32 C61.505 30.515 61.505 30.515 61 29 C59.515 29.495 59.515 29.495 58 30 C55.49322314 30.26365099 52.98684296 30.44286332 50.47265625 30.62109375 C47.91022719 31.01375666 46.18329058 31.61378376 44 33 C43.34786708 35.02463255 43.34786708 35.02463255 43 37 C42.01 37.495 42.01 37.495 41 38 C41 39.32 41 40.64 41 42 C34.89727765 41.52668655 30.16701481 38.77688762 24.875 35.9375 C23.94010742 35.44088867 23.00521484 34.94427734 22.04199219 34.43261719 C15.05638194 30.67448972 8.41139442 26.68448633 2 22 C0.68902344 21.05640625 0.68902344 21.05640625 -0.6484375 20.09375 C-7.44825102 15.03142827 -7.44825102 15.03142827 -9 11 C-9.54565702 4.77951002 -9.54565702 4.77951002 -7.6875 2.125 C-5.08162401 0.38774934 -3.11698611 0 0 0 Z M22 28 C24.58323124 30.9882675 27.55535237 32.49429547 31.0625 34.25 C32.12597656 34.79140625 33.18945312 35.3328125 34.28515625 35.890625 C35.18105469 36.25671875 36.07695313 36.6228125 37 37 C37.66 36.67 38.32 36.34 39 36 C36.54429825 34.66161267 34.08570084 33.32913768 31.625 32 C30.92632812 31.6184375 30.22765625 31.236875 29.5078125 30.84375 C25.9571054 28.74275256 25.9571054 28.74275256 22 28 Z M125 45 C127.31 45 129.62 45 132 45 C131.67 44.34 131.34 43.68 131 43 C127.81509993 42.7226499 127.81509993 42.7226499 125 45 Z " fill="#101B3B" transform="translate(53,70)"/>
<path d="M0 0 C3.88545772 2.40153797 7.45321651 5.12665642 11 8 C10.34877894 12.18893544 9.42755093 16.0028574 8 20 C9.65 20 11.3 20 13 20 C13 19.34 13 18.68 13 18 C13.99 17.67 14.98 17.34 16 17 C16.33 16.34 16.66 15.68 17 15 C27.10132996 14.3730209 27.10132996 14.3730209 30.6875 16.875 C32 19 32 19 32 21 C33.98 21 35.96 21 38 21 C38.08121094 21.598125 38.16242188 22.19625 38.24609375 22.8125 C39.24019041 25.69692553 40.5047341 26.38549254 43.0625 28 C43.88234375 28.51820312 44.7021875 29.03640625 45.546875 29.5703125 C47.60884692 30.77203499 49.65875305 31.85242267 51.8125 32.875 C57.58220908 35.63342665 62.72744367 39.40914791 68 43 C70.48180387 44.6276993 72.96546982 46.25235359 75.453125 47.87109375 C75.96359375 48.24363281 76.4740625 48.61617187 77 49 C77 49.33 77 49.66 77 50 C66.17023481 50.9499794 55.01260901 46.93513276 46 41 C46 40.34 46 39.68 46 39 C45.20335937 39.44472656 44.40671875 39.88945313 43.5859375 40.34765625 C42.52632813 40.91355469 41.46671875 41.47945312 40.375 42.0625 C39.33085937 42.63097656 38.28671875 43.19945312 37.2109375 43.78515625 C32.92525698 45.40662419 30.35723366 45.03506123 26.18798828 43.2043457 C24.21748134 42.23014838 22.29628132 41.19280376 20.375 40.125 C19.72015625 39.77308594 19.0653125 39.42117187 18.390625 39.05859375 C15.66362287 37.57364725 13.22868141 36.19375553 10.8515625 34.1796875 C9.04520129 32.79130018 9.04520129 32.79130018 6.71875 33.02734375 C2.95839347 34.37264371 -0.16518217 36.38859483 -3.5 38.5625 C-4.92575786 39.4687868 -6.35153946 40.37503626 -7.77734375 41.28125 C-9.82210592 42.59391387 -11.8635905 43.91104796 -13.89892578 45.23828125 C-15.61416317 46.35591891 -17.33774521 47.45963224 -19.0625 48.5625 C-20.04347656 49.20316406 -21.02445313 49.84382813 -22.03515625 50.50390625 C-25.44178025 52.22292732 -28.19714685 52.81282475 -32 53 C-36.58789813 48.41210187 -35.24860949 39.49102639 -35.25097656 33.33544922 C-35.14996197 25.37825394 -34.21125738 18.08232132 -30.375 11 C-26.9340529 8.10236033 -23.15892081 6.63260512 -19 5 C-17.74822122 4.46245683 -16.4980324 3.92118486 -15.25 3.375 C-13.64125 2.694375 -13.64125 2.694375 -12 2 C-11.175 1.608125 -10.35 1.21625 -9.5 0.8125 C-5.85697648 -0.37148264 -3.85505429 -0.62178295 0 0 Z " fill="#F19327" transform="translate(100,41)"/>
<path d="M0 0 C0.94875 0.845625 1.8975 1.69125 2.875 2.5625 C9.41427861 8.11959447 16.34416342 12.66908202 23.82373047 16.85449219 C31.19251022 20.98632906 37.84741895 25.1762699 44.15429688 30.80151367 C64.32024986 48.70038232 91.4631005 66.73101846 119 68 C119 72 119 72 117.0859375 74.19140625 C114.07902487 76.82137162 111.05808896 79.42998726 108 82 C107.40654785 82.51208008 106.8130957 83.02416016 106.20166016 83.55175781 C104.38030792 85.11816911 102.53822396 86.6559603 100.6875 88.1875 C99.82680908 88.92818726 99.82680908 88.92818726 98.94873047 89.68383789 C96.24977542 91.85823481 94.49526991 92.97745846 90.99609375 93.13671875 C87.12138541 91.66665339 84.39065602 89.37966532 81.375 86.625 C80.76889893 86.08697754 80.16279785 85.54895508 79.53833008 84.99462891 C78.28919786 83.88164411 77.04513118 82.7629485 75.80615234 81.63867188 C74.12784176 80.11598728 72.43576199 78.61061218 70.73828125 77.109375 C57.30291339 65.13732811 45.77603642 51.32459533 36.625 35.8125 C31.80898958 27.82185413 25.97236798 24.3668241 18.03125 19.81640625 C10.92485191 15.55806203 3.44470476 10.14882584 -1 3 C-0.67 2.01 -0.34 1.02 0 0 Z " fill="#B8DEEF" transform="translate(43,93)"/>
<path d="M0 0 C1.41750563 0.11509661 2.83401169 0.24253658 4.25 0.375 C5.03890625 0.44460937 5.8278125 0.51421875 6.640625 0.5859375 C9.085877 1.01507113 10.84836903 1.78600638 13 3 C13 3.66 13 4.32 13 5 C13.66 5 14.32 5 15 5 C15.7734375 5.99 15.7734375 5.99 16.5625 7 C19.74405212 9.6105043 21.78718229 9.40432907 25.78125 9.3359375 C28.21899344 8.96684254 29.8086051 8.10601475 32 7 C38.99727695 5.35953854 45.8332261 4.76110754 53 5 C52.67 5.99 52.34 6.98 52 8 C50.06640625 8.80859375 50.06640625 8.80859375 47.5625 9.4375 C42.87844393 10.70455402 38.49804674 12.34338848 34.03125 14.23046875 C32 15 32 15 30 15 C30 15.66 30 16.32 30 17 C31.98 17.66 33.96 18.32 36 19 C36 19.66 36 20.32 36 21 C38.33165034 21.33498301 38.33165034 21.33498301 41 21 C41.66 20.34 42.32 19.68 43 19 C45 17 45 17 47.75 16.75 C48.4925 16.8325 49.235 16.915 50 17 C51 20 51 20 50 23 C53.3 23 56.6 23 60 23 C60 23.66 60 24.32 60 25 C55.05 27.475 55.05 27.475 50 30 C50 31.65 50 33.3 50 35 C49.35933594 34.94199219 48.71867187 34.88398437 48.05859375 34.82421875 C41.12516857 34.46256468 38.36859139 35.7270395 33 40 C32.01 39.67 31.02 39.34 30 39 C30.144375 38.46375 30.28875 37.9275 30.4375 37.375 C31.09448648 34.6010571 31.54146441 31.81286537 32 29 C25.76969323 23.96901547 25.76969323 23.96901547 18.375 21.3125 C14.86155605 22.02820155 12.34626092 23.14450705 9.234375 24.86328125 C6.71415825 26.14541949 4.17753197 27.0314291 1.5 27.9375 C-2.16245225 29.20566214 -5.17607964 30.62757704 -8.375 32.8125 C-11.64876177 35.02195239 -11.64876177 35.02195239 -15 34.8125 C-15.66 34.544375 -16.32 34.27625 -17 34 C-17.495 32.515 -17.495 32.515 -18 31 C-17.23816406 30.55011719 -16.47632813 30.10023437 -15.69140625 29.63671875 C-8.0890058 24.90064157 -1.56089466 19.91702469 3 12 C2.78499803 9.17997417 2.16690718 8.20542422 0.375 6 C-0.305625 5.01 -0.305625 5.01 -1 4 C-0.5859375 1.875 -0.5859375 1.875 0 0 Z " fill="#0F193A" transform="translate(78,20)"/>
<path d="M0 0 C1.11246094 -0.00773437 2.22492188 -0.01546875 3.37109375 -0.0234375 C7.73299023 0.5211322 10.38551689 2.07191156 13.3125 5.3125 C16.23302074 10.13135922 16.20791378 15.90189112 15.5625 21.375 C14.5063652 23.91773212 13.43322362 25.28419125 11.5625 27.375 C10.9025 27.375 10.2425 27.375 9.5625 27.375 C9.2325 28.365 8.9025 29.355 8.5625 30.375 C4.46012903 32.73697116 0.1800766 32.92805575 -4.4375 32.375 C-8.52832695 31.14775191 -10.85705587 29.95544413 -13.875 26.9375 C-16.1707259 21.70324494 -16.30010154 17.00034167 -15.4375 11.375 C-12.42215093 3.9021784 -8.21900387 -0.05701043 0 0 Z " fill="#F5BD49" transform="translate(164.4375,32.625)"/>
<path d="M0 0 C0 0.99 0 1.98 0 3 C-1.65 3.33 -3.3 3.66 -5 4 C-4.67 4.66 -4.34 5.32 -4 6 C-3.40832031 5.79503906 -2.81664063 5.59007813 -2.20703125 5.37890625 C-0.58109447 4.82454934 1.04936054 4.28330574 2.68359375 3.75390625 C4.38298809 3.20081501 6.0704624 2.61074094 7.75 2 C10 2 10 2 12.8125 4.4375 C13.534375 5.283125 14.25625 6.12875 15 7 C11.69507204 8.10164265 8.70721036 8.3464655 5.25390625 8.62109375 C2.84869754 9.0254356 1.11542228 9.8097738 -1 11 C-1 11.99 -1 12.98 -1 14 C-1 14.99 -1 15.98 -1 17 C-3.64 15.68 -6.28 14.36 -9 13 C-6 11 -6 11 -4 11 C-4.33 9.68 -4.66 8.36 -5 7 C-11.34299215 8.50856309 -11.34299215 8.50856309 -16.0625 12.6875 C-16.371875 13.450625 -16.68125 14.21375 -17 15 C-16.2575 15.4125 -15.515 15.825 -14.75 16.25 C-12.09828315 17.93745618 -10.13325986 19.70872089 -8 22 C-8.66 22.33 -9.32 22.66 -10 23 C-8.7625 23.680625 -8.7625 23.680625 -7.5 24.375 C-6.675 24.91125 -5.85 25.4475 -5 26 C-5 26.66 -5 27.32 -5 28 C-4.01 28 -3.02 28 -2 28 C-1.67 28.66 -1.34 29.32 -1 30 C1.31979381 31.03101947 3.65429915 32.02936517 6 33 C6.99 33.66 7.98 34.32 9 35 C8.67 36.32 8.34 37.64 8 39 C8.639375 39.2475 9.27875 39.495 9.9375 39.75 C12 41 12 41 12.8125 43 C13 45 13 45 12 47 C12.66 47 13.32 47 14 47 C14 47.66 14 48.32 14 49 C14.99 48.67 15.98 48.34 17 48 C18.33333333 48.66666667 19.66666667 49.33333333 21 50 C21.99 49.67 22.98 49.34 24 49 C23.67 50.32 23.34 51.64 23 53 C24.65 52.34 26.3 51.68 28 51 C27.67 50.34 27.34 49.68 27 49 C29.35968744 46.90250005 30.54616994 46.03094296 33.75 45.8125 C34.86375 45.9053125 34.86375 45.9053125 36 46 C36.5625 47.9375 36.5625 47.9375 37 50 C36.67 50.33 36.34 50.66 36 51 C35.95936168 52.66617115 35.957279 54.33388095 36 56 C37.98 56.66 39.96 57.32 42 58 C42 58.33 42 58.66 42 59 C35.00812992 59.5179163 30.2962726 57.95658303 24 55 C23.41154297 54.72623535 22.82308594 54.4524707 22.21679688 54.17041016 C5.54919795 46.34952511 -12.90809489 36.09190511 -26 23 C-25.9765625 20.8359375 -25.9765625 20.8359375 -25.625 18.375 C-25.51414062 17.55773437 -25.40328125 16.74046875 -25.2890625 15.8984375 C-25.19367188 15.27195312 -25.09828125 14.64546875 -25 14 C-22.36 13.67 -19.72 13.34 -17 13 C-15.68373308 9.38026598 -15 6.90432869 -15 3 C-9.63999211 0.74315457 -5.8022175 -0.36263859 0 0 Z " fill="#0E1A3C" transform="translate(113,100)"/>
<path d="M0 0 C0.94875 0.845625 1.8975 1.69125 2.875 2.5625 C9.41427861 8.11959447 16.34416342 12.66908202 23.82373047 16.85449219 C31.17949855 20.97903313 37.85093473 25.14658006 44.12792969 30.78833008 C49.18725538 35.30512451 54.66887866 39.12182153 60.26611328 42.94116211 C63.83702229 45.39422498 67.06398306 47.77419437 70 51 C69.4225 50.835 68.845 50.67 68.25 50.5 C65.73335631 49.85537969 65.73335631 49.85537969 62 50 C61.34 50 60.68 50 60 50 C60 49.01 60 48.02 60 47 C59.01 47 58.02 47 57 47 C56.67 46.67 56.34 46.34 56 46 C56 46.66 56 47.32 56 48 C55.195625 48.12375 54.39125 48.2475 53.5625 48.375 C52.716875 48.58125 51.87125 48.7875 51 49 C50.505 49.99 50.505 49.99 50 51 C50.99 51.33 51.98 51.66 53 52 C53.495 55.465 53.495 55.465 54 59 C49.84579148 55.12374033 46.71792582 50.96154139 43.5625 46.25 C43.08022949 45.54133789 42.59795898 44.83267578 42.10107422 44.10253906 C39.12467932 39.71870162 36.20647994 35.30077409 33.4140625 30.796875 C30.16238513 26.66490928 25.78582027 24.20140039 21.25 21.6875 C13.00537859 16.93293305 4.14450186 11.27437362 -1 3 C-0.67 2.01 -0.34 1.02 0 0 Z " fill="#99CEE4" transform="translate(43,93)"/>
<path d="M0 0 C9.3928167 -0.34645635 9.3928167 -0.34645635 13.875 1.0625 C19.8925236 2.7922335 26.29121744 1.62933213 32.37109375 0.59765625 C35.73009903 0.0325306 37.65469997 -0.15346668 40.8125 1.25 C42.68393204 2.74714563 44.32637393 4.2928055 46 6 C44.73652837 8.60797351 43.46464776 11.21123407 42.1875 13.8125 C41.83107422 14.55048828 41.47464844 15.28847656 41.10742188 16.04882812 C40.75615234 16.76103516 40.40488281 17.47324219 40.04296875 18.20703125 C39.72352295 18.8616333 39.40407715 19.51623535 39.07495117 20.19067383 C37.93098106 22.11617064 36.64255865 23.48835511 35 25 C31.58841744 23.86280581 30.88145399 22.95657056 29 20 C29 19.34 29 18.68 29 18 C28.14341797 17.58427734 28.14341797 17.58427734 27.26953125 17.16015625 C25.01009876 16.00516236 22.85724748 14.75283915 20.6875 13.4375 C17.47127352 11.48944078 14.24929406 9.55293542 11.01171875 7.640625 C10.32827393 7.23529541 9.6448291 6.82996582 8.94067383 6.41235352 C7.57103216 5.60021639 6.19978784 4.79077563 4.8269043 3.98413086 C3.20120996 3.01699859 1.59807681 2.01211531 0 1 C0 0.67 0 0.34 0 0 Z " fill="#C5E4F1" transform="translate(148,114)"/>
<path d="M0 0 C4.00572371 1.19089083 7.67505211 2.76937745 11.4375 4.5625 C15.69691675 6.52528528 19.28386865 7.64406556 24 8 C31.72121212 8.72121212 31.72121212 8.72121212 34 11 C42.44618797 13.16823282 51.32979163 13.51262142 60 14 C60 14.99 60 15.98 60 17 C51.08080252 22.58072692 43.49074324 24.27308903 33 23 C30.53495128 22.1521053 28.32552852 21.16276426 26 20 C26 18.02 26 16.04 26 14 C26.66 14 27.32 14 28 14 C27.34 12.68 26.68 11.36 26 10 C22.18586998 11.1678266 22.18586998 11.1678266 19.6875 14.125 C19.460625 14.74375 19.23375 15.3625 19 16 C18.34 16 17.68 16 17 16 C16.67 16.66 16.34 17.32 16 18 C15.34 17.67 14.68 17.34 14 17 C14.33 15.68 14.66 14.36 15 13 C14.13375 13.556875 14.13375 13.556875 13.25 14.125 C11 15 11 15 8.875 14.125 C8.25625 13.75375 7.6375 13.3825 7 13 C6.34 13 5.68 13 5 13 C5 12.34 5 11.68 5 11 C4.34 11 3.68 11 3 11 C2.896875 10.05125 2.79375 9.1025 2.6875 8.125 C2.31460705 4.70892499 2.31460705 4.70892499 -1 3 C-0.67 2.01 -0.34 1.02 0 0 Z " fill="#0D1838" transform="translate(122,136)"/>
<path d="M0 0 C3 2 3 2 3.75 4.375 C3.99286095 6.92504 3.8028831 8.59135071 3 11 C3.66 11.33 4.32 11.66 5 12 C4.8125 13.8125 4.8125 13.8125 4 16 C0.25511508 18.9738792 -3.25680972 19.83357227 -8 20 C-11.57206648 18.62612828 -14.70987299 17.13385802 -17 14 C-18.35173156 10.52411884 -17.99693988 8.99013963 -16.875 5.375 C-12.83162286 -1.90307884 -7.52952372 -1.69733331 0 0 Z M-8 4 C-8.66 5.65 -9.32 7.3 -10 9 C-8.35 8.67 -6.7 8.34 -5 8 C-5 6.68 -5 5.36 -5 4 C-5.99 4 -6.98 4 -8 4 Z M-6 13 C-6.33 13.66 -6.66 14.32 -7 15 C-6.01 14.67 -5.02 14.34 -4 14 C-4.66 13.67 -5.32 13.34 -6 13 Z " fill="#243855" transform="translate(184,206)"/>
<path d="M0 0 C1.04542969 0.09925781 2.09085938 0.19851562 3.16796875 0.30078125 C5.8125 0.6875 5.8125 0.6875 7.8125 1.6875 C7.8125 7.2975 7.8125 12.9075 7.8125 18.6875 C-7.6875 20.625 -7.6875 20.625 -12.1875 17.8125 C-14.76855526 15.07012878 -15.14152095 14.17487793 -15.5 10.375 C-15.13349135 6.05019788 -14.3076518 4.63899494 -11.1875 1.6875 C-7.24295814 -0.3325422 -4.37402451 -0.45098638 0 0 Z M-6.1875 4.6875 C-8.49537112 7.51212068 -8.49537112 7.51212068 -8.0625 10.75 C-7.49460527 13.80007974 -7.49460527 13.80007974 -5.125 15.0625 C-4.485625 15.26875 -3.84625 15.475 -3.1875 15.6875 C-2.1975 15.0275 -1.2075 14.3675 -0.1875 13.6875 C0.22916667 10.1875 0.22916667 10.1875 -0.1875 6.6875 C-0.8475 6.0275 -1.5075 5.3675 -2.1875 4.6875 C-3.5075 4.6875 -4.8275 4.6875 -6.1875 4.6875 Z " fill="#4E5C71" transform="translate(123.1875,205.3125)"/>
<path d="M0 0 C-1 3 -1 3 -2.625 4.3125 C-4.32988594 6.03305755 -4.32988594 6.03305755 -3.9375 9.0625 C-3.30199095 12.10851061 -3.30199095 12.10851061 -0.9375 13.375 C-0.298125 13.58125 0.34125 13.7875 1 14 C1 14.66 1 15.32 1 16 C1.52851562 16.25007813 2.05703125 16.50015625 2.6015625 16.7578125 C4.99158328 17.99564085 7.27664948 19.36068736 9.57006836 20.76782227 C20.15052142 27.25806366 31.07282749 33.11936324 42 39 C41.67 39.99 41.34 40.98 41 42 C34.89727765 41.52668655 30.16701481 38.77688762 24.875 35.9375 C23.94010742 35.44088867 23.00521484 34.94427734 22.04199219 34.43261719 C15.05638194 30.67448972 8.41139442 26.68448633 2 22 C0.68902344 21.05640625 0.68902344 21.05640625 -0.6484375 20.09375 C-7.44825102 15.03142827 -7.44825102 15.03142827 -9 11 C-9.54565702 4.77951002 -9.54565702 4.77951002 -7.6875 2.125 C-5.08162401 0.38774934 -3.11698611 0 0 0 Z " fill="#7FB8CC" transform="translate(53,70)"/>
<path d="M0 0 C8.38177373 8.38177373 6.7907437 27.10820957 7 38 C9.97 38.66 12.94 39.32 16 40 C14.68 36.04 13.36 32.08 12 28 C16.93037047 29.23259262 17.90068486 30.81368552 20.73046875 34.796875 C22.58846237 38.02120854 23 40.28460786 23 44 C20.4398497 46.5601503 18.24209702 46.70731879 14.71875 47.0390625 C8.52985732 46.95014163 2.15353494 45.43568996 -3 42 C-1.68 42 -0.36 42 1 42 C1.33 39.69 1.66 37.38 2 35 C1.34 35 0.68 35 0 35 C0 34.34 0 33.68 0 33 C1.98 32.505 1.98 32.505 4 32 C3.67586356 23.19243043 3.10729502 14.97044609 0.62109375 6.453125 C0 4 0 4 0 0 Z " fill="#F29C27" transform="translate(198,49)"/>
<path d="M0 0 C-0.33 1.32 -0.66 2.64 -1 4 C-2.98 4.33 -4.96 4.66 -7 5 C-6.98839844 5.85722656 -6.97679688 6.71445313 -6.96484375 7.59765625 C-6.87106501 19.48076227 -6.87106501 19.48076227 -8 25 C-9 26 -9 26 -11.5 26.125 C-14 26 -14 26 -15 25 C-15.08685603 23.43827255 -15.10702219 21.87270656 -15.09765625 20.30859375 C-15.09443359 19.36435547 -15.09121094 18.42011719 -15.08789062 17.44726562 C-15.07951172 16.45404297 -15.07113281 15.46082031 -15.0625 14.4375 C-15.05798828 13.44041016 -15.05347656 12.44332031 -15.04882812 11.41601562 C-15.03700007 8.94395151 -15.02051849 6.47200482 -15 4 C-17.31 4 -19.62 4 -22 4 C-22.33 2.68 -22.66 1.36 -23 0 C-5.13392857 -1.64285714 -5.13392857 -1.64285714 0 0 Z " fill="#444E64" transform="translate(80,199)"/>
<path d="M0 0 C0.98120464 3.05263664 0.98120464 4.94736336 0 8 C-0.99 8 -1.98 8 -3 8 C-2.67 8.99 -2.34 9.98 -2 11 C-2 11.99 -2 12.98 -2 14 C-1.6937566 15.33981486 -1.36548445 16.67511887 -1 18 C0.32 17.67 1.64 17.34 3 17 C3 15.68 3 14.36 3 13 C3.99 13 4.98 13 6 13 C6 15.31 6 17.62 6 20 C2.7 20 -0.6 20 -4 20 C-4 18.35 -4 16.7 -4 15 C-6.33165034 14.66501699 -6.33165034 14.66501699 -9 15 C-9.99 16.0209375 -9.99 16.0209375 -11 17.0625 C-11.66 17.701875 -12.32 18.34125 -13 19 C-15.75 18.75 -15.75 18.75 -18 18 C-18 17.34 -18 16.68 -18 16 C-18.928125 15.7834375 -18.928125 15.7834375 -19.875 15.5625 C-22 15 -22 15 -24 14 C-24 13.34 -24 12.68 -24 12 C-18.65848832 9.11474251 -13.28049595 7.46543418 -7.48242188 5.80664062 C-5.63806187 5.25831738 -3.81641122 4.63480115 -2 4 C-1.67 3.34 -1.34 2.68 -1 2 C-10.405 2.99 -10.405 2.99 -20 4 C-19.67 3.34 -19.34 2.68 -19 2 C-12.78114785 0.41095576 -6.4055984 -0.29116356 0 0 Z " fill="#D47C35" transform="translate(132,23)"/>
<path d="M0 0 C0.78375 0.04125 1.5675 0.0825 2.375 0.125 C3.375 3.125 3.375 3.125 2.375 6.125 C5.675 6.125 8.975 6.125 12.375 6.125 C12.375 6.785 12.375 7.445 12.375 8.125 C7.425 10.6 7.425 10.6 2.375 13.125 C2.375 14.775 2.375 16.425 2.375 18.125 C1.71113281 18.10179688 1.04726562 18.07859375 0.36328125 18.0546875 C-6.35361016 17.88875695 -6.35361016 17.88875695 -12.625 20.125 C-12.91019217 16.74705716 -13.07329577 13.49268532 -12.625 10.125 C-10.3125 8.3125 -10.3125 8.3125 -7.625 7.125 C-5.92617552 4.62740018 -5.92617552 4.62740018 -4.625 2.125 C-2.625 0.125 -2.625 0.125 0 0 Z " fill="#10193C" transform="translate(125.625,36.875)"/>
<path d="M0 0 C0.94875 0.845625 1.8975 1.69125 2.875 2.5625 C9.41523879 8.12041043 16.34642706 12.66940491 23.82641602 16.85644531 C32.04198491 21.46161739 39.25623135 26.26032188 46.23828125 32.58984375 C49.04917271 35.0429131 51.85980586 37.00085129 55 39 C54.01 39.66 53.02 40.32 52 41 C51.01 40.505 51.01 40.505 50 40 C49.67 40.99 49.34 41.98 49 43 C48.34 43 47.68 43 47 43 C47.0825 42.071875 47.165 41.14375 47.25 40.1875 C47.35773994 36.95163704 47.35773994 36.95163704 45.1875 35.3125 C44.465625 34.879375 43.74375 34.44625 43 34 C42.525625 33.484375 42.05125 32.96875 41.5625 32.4375 C40.01596486 30.8418 40.01596486 30.8418 37.625 30.0625 C35 29 35 29 32.75 27.0625 C30.17107767 25.12830825 29.03944177 24.65087577 26.0625 23.875 C16.81917128 21.05710079 5.66068682 12.81991787 0 5 C-0.73046875 2.8671875 -0.73046875 2.8671875 -1 1 C-0.67 0.67 -0.34 0.34 0 0 Z " fill="#8EC1D8" transform="translate(43,93)"/>
<path d="M0 0 C1.32 0 2.64 0 4 0 C5.24243217 1.44023232 6.47759001 2.88903579 7.63818359 4.39599609 C9.81825115 6.96377018 12.47020726 8.53898949 15.3125 10.3125 C15.9120752 10.68858398 16.51165039 11.06466797 17.12939453 11.45214844 C23.1079842 15.15896632 29.2538224 18.57091806 35.3984375 21.9921875 C43.39072563 26.44343066 43.39072563 26.44343066 47 29 C47 29.99 47 30.98 47 32 C36.37603626 30.69390551 26.91553266 24.1247852 18.0625 18.4375 C17.36535889 17.99100098 16.66821777 17.54450195 15.94995117 17.08447266 C3.16053744 8.69290281 3.16053744 8.69290281 0 2 C0 1.34 0 0.68 0 0 Z " fill="#87BED6" transform="translate(40,84)"/>
<path d="M0 0 C3.25 -0.3125 3.25 -0.3125 7 0 C9.4375 2.5 9.4375 2.5 11 5 C11.350625 4.175 11.70125 3.35 12.0625 2.5 C12.701875 1.675 13.34125 0.85 14 0 C17.6875 -0.3125 17.6875 -0.3125 21 0 C20.35343863 4.29963309 18.84648765 7.82621374 17 11.75 C16.46375 12.89984375 15.9275 14.0496875 15.375 15.234375 C14 18 14 18 13 19 C10.6875 19.4375 10.6875 19.4375 8 19 C3.81083956 14.30306254 0 6.35100726 0 0 Z " fill="#4C5D77" transform="translate(139,206)"/>
<path d="M0 0 C1.875 0.3125 1.875 0.3125 4 1 C4.66 1.99 5.32 2.98 6 4 C2.25 7 2.25 7 0 7 C-0.66 8.98 -1.32 10.96 -2 13 C-0.02 13 1.96 13 4 13 C4 12.34 4 11.68 4 11 C13.71111111 8.27407407 13.71111111 8.27407407 19 9 C20.9375 11.5 20.9375 11.5 22 14 C21.484375 13.67 20.96875 13.34 20.4375 13 C16.62142385 11.4344303 13.04355766 11.16006316 9.15625 12.7578125 C7.84009132 13.44286231 6.53319843 14.14590784 5.234375 14.86328125 C2.71415825 16.14541949 0.17753197 17.0314291 -2.5 17.9375 C-6.16245225 19.20566214 -9.17607964 20.62757704 -12.375 22.8125 C-15.64876177 25.02195239 -15.64876177 25.02195239 -19 24.8125 C-19.66 24.544375 -20.32 24.27625 -21 24 C-21.33 23.01 -21.66 22.02 -22 21 C-21.23816406 20.55011719 -20.47632813 20.10023437 -19.69140625 19.63671875 C-11.53607011 14.55617851 -4.41029937 8.82059873 0 0 Z " fill="#3A292B" transform="translate(82,30)"/>
<path d="M0 0 C0 0.99 0 1.98 0 3 C-1.65 3.33 -3.3 3.66 -5 4 C-4.67 4.66 -4.34 5.32 -4 6 C-3.40832031 5.79503906 -2.81664063 5.59007813 -2.20703125 5.37890625 C-0.58109447 4.82454934 1.04936054 4.28330574 2.68359375 3.75390625 C4.38298809 3.20081501 6.0704624 2.61074094 7.75 2 C10 2 10 2 12.8125 4.4375 C13.534375 5.283125 14.25625 6.12875 15 7 C11.69507204 8.10164265 8.70721036 8.3464655 5.25390625 8.62109375 C2.84869754 9.0254356 1.11542228 9.8097738 -1 11 C-1 11.99 -1 12.98 -1 14 C-1 14.99 -1 15.98 -1 17 C-3.64 15.68 -6.28 14.36 -9 13 C-6 11 -6 11 -4 11 C-4.33 9.68 -4.66 8.36 -5 7 C-11.34299215 8.50856309 -11.34299215 8.50856309 -16.0625 12.6875 C-16.371875 13.450625 -16.68125 14.21375 -17 15 C-15.88625 15.61875 -15.88625 15.61875 -14.75 16.25 C-12.09828315 17.93745618 -10.13325986 19.70872089 -8 22 C-9.32 22 -10.64 22 -12 22 C-12 21.34 -12 20.68 -12 20 C-12.7425 19.7525 -13.485 19.505 -14.25 19.25 C-17.20124062 17.90852699 -18.84814974 16.39094474 -21 14 C-20.38125 13.95875 -19.7625 13.9175 -19.125 13.875 C-16.68123348 13.15469467 -16.68123348 13.15469467 -15.75 10.1875 C-14.84730711 6.89681301 -14.84730711 6.89681301 -15 3 C-9.63999211 0.74315457 -5.8022175 -0.36263859 0 0 Z " fill="#29314A" transform="translate(113,100)"/>
<path d="M0 0 C3 0.3125 3 0.3125 6 1 C7.27137774 3.54275549 7.129425 5.34808201 7.1328125 8.19140625 C7.13474609 9.73151367 7.13474609 9.73151367 7.13671875 11.30273438 C7.13285156 12.37845703 7.12898437 13.45417969 7.125 14.5625 C7.12886719 15.64208984 7.13273438 16.72167969 7.13671875 17.83398438 C7.13542969 18.85943359 7.13414062 19.88488281 7.1328125 20.94140625 C7.13168457 21.88701416 7.13055664 22.83262207 7.12939453 23.80688477 C7 26 7 26 6 27 C4.00041636 27.04080783 1.99954746 27.04254356 0 27 C-1.29776917 24.40446166 -1.12950035 22.49294473 -1.1328125 19.58984375 C-1.13410156 18.51798828 -1.13539063 17.44613281 -1.13671875 16.34179688 C-1.13285156 15.21837891 -1.12898437 14.09496094 -1.125 12.9375 C-1.12886719 11.81021484 -1.13273438 10.68292969 -1.13671875 9.52148438 C-1.13542969 8.45091797 -1.13414062 7.38035156 -1.1328125 6.27734375 C-1.13168457 5.28984131 -1.13055664 4.30233887 -1.12939453 3.28491211 C-1 1 -1 1 0 0 Z " fill="#ACCBDE" transform="translate(198,198)"/>
<path d="M0 0 C4.48611218 1.49537073 8.61589222 3.66369035 12 7 C12.4375 9.625 12.4375 9.625 12 12 C11.6731413 14.96920212 11.6731413 14.96920212 13.36328125 16.578125 C18.89830809 21.32560293 24.7880503 25.19656068 31 29 C31.99 29.66 32.98 30.32 34 31 C33.67 31.66 33.34 32.32 33 33 C24.88672569 27.95203029 16.99594188 22.66025687 9.25 17.0625 C8.46383301 16.4950708 7.67766602 15.9276416 6.86767578 15.34301758 C1.27092241 11.27092241 1.27092241 11.27092241 -1 9 C-0.9765625 6.8359375 -0.9765625 6.8359375 -0.625 4.375 C-0.51414062 3.55773437 -0.40328125 2.74046875 -0.2890625 1.8984375 C-0.19367188 1.27195312 -0.09828125 0.64546875 0 0 Z " fill="#0F1C3D" transform="translate(88,114)"/>
<path d="M0 0 C-0.3125 1.875 -0.3125 1.875 -1 4 C-1.99 4.66 -2.98 5.32 -4 6 C-4.54747342 8.8536507 -4.54747342 8.8536507 -4.625 12.0625 C-4.91739675 17.91739675 -4.91739675 17.91739675 -6 19 C-8.4375 19.1875 -8.4375 19.1875 -11 19 C-13 17 -13 17 -13.1953125 13.0859375 C-13.18200376 11.51550649 -13.15813602 9.94513779 -13.125 8.375 C-13.11597656 7.57320312 -13.10695313 6.77140625 -13.09765625 5.9453125 C-13.07406223 3.96341477 -13.03819065 1.98167019 -13 0 C-4.28571429 -1.20535714 -4.28571429 -1.20535714 0 0 Z " fill="#54637A" transform="translate(101,206)"/>
<path d="M0 0 C0 0.66 0 1.32 0 2 C-1.32 2.33 -2.64 2.66 -4 3 C-4.33 4.32 -4.66 5.64 -5 7 C-6.32 7 -7.64 7 -9 7 C-8.27731765 10.2985139 -8.27731765 10.2985139 -4.9375 11.6875 C-3.4834375 12.3371875 -3.4834375 12.3371875 -2 13 C-2 13.66 -2 14.32 -2 15 C-1.4225 15.12375 -0.845 15.2475 -0.25 15.375 C2.02335767 16.00648824 3.9253529 16.88858191 6 18 C6 18.66 6 19.32 6 20 C7.65 20.33 9.3 20.66 11 21 C11.33 20.34 11.66 19.68 12 19 C12.495 21.97 12.495 21.97 13 25 C12.236875 24.690625 11.47375 24.38125 10.6875 24.0625 C8.81210323 23.32106407 6.91315348 22.63771783 5 22 C7.31 23.65 9.62 25.3 12 27 C11.01 27.495 11.01 27.495 10 28 C0.17475728 21.52427184 0.17475728 21.52427184 -1 18 C-2.65 17.67 -4.3 17.34 -6 17 C-6 16.34 -6 15.68 -6 15 C-7.32 14.34 -8.64 13.68 -10 13 C-10 12.34 -10 11.68 -10 11 C-13.63 11 -17.26 11 -21 11 C-21.33 11.99 -21.66 12.98 -22 14 C-22.99 14 -23.98 14 -25 14 C-25 14.66 -25 15.32 -25 16 C-26.65 16 -28.3 16 -30 16 C-28.71170846 13.42341692 -27.58096973 13.21879126 -25 12 C-23.948125 11.1646875 -23.948125 11.1646875 -22.875 10.3125 C-18.53786976 8.33250576 -14.6084721 9.25727537 -10 10 C-10.33 8.35 -10.66 6.7 -11 5 C-9.54462432 4.16151196 -8.08559627 3.32936066 -6.625 2.5 C-5.81289062 2.0359375 -5.00078125 1.571875 -4.1640625 1.09375 C-2 0 -2 0 0 0 Z " fill="#ED973A" transform="translate(138,45)"/>
<path d="M0 0 C0 5.61 0 11.22 0 17 C-4.62 17 -9.24 17 -14 17 C-14.66 15.68 -15.32 14.36 -16 13 C-14.3603125 13.061875 -14.3603125 13.061875 -12.6875 13.125 C-8.91107771 13.32074666 -8.91107771 13.32074666 -6 11 C-5.74984127 7.41642759 -5.74984127 7.41642759 -6 4 C-9.47875491 2.33455382 -9.47875491 2.33455382 -13.25 2.3125 C-14.9977964 2.86460126 -14.9977964 2.86460126 -16 4 C-16.36760731 6.32817964 -16.70241581 8.6618385 -17 11 C-17.33 11 -17.66 11 -18 11 C-18.48828125 5.140625 -18.48828125 5.140625 -18 3 C-12.63850267 -2.84163142 -7.30110668 -0.88498263 0 0 Z " fill="#344763" transform="translate(128,208)"/>
<path d="M0 0 C1.41750563 0.11509661 2.83401169 0.24253658 4.25 0.375 C5.03890625 0.44460937 5.8278125 0.51421875 6.640625 0.5859375 C9.085877 1.01507113 10.84836903 1.78600638 13 3 C13 3.66 13 4.32 13 5 C13.66 5 14.32 5 15 5 C16.38232443 6.62626404 17.71937515 8.2925002 19 10 C16.03 9.505 16.03 9.505 13 9 C12.87625 10.11375 12.7525 11.2275 12.625 12.375 C12 16 12 16 10 18 C6.875 18.125 6.875 18.125 4 18 C5.65 16.35 7.3 14.7 9 13 C8.44570312 12.60167969 7.89140625 12.20335937 7.3203125 11.79296875 C6.23363281 10.99826172 6.23363281 10.99826172 5.125 10.1875 C4.40570313 9.66542969 3.68640625 9.14335937 2.9453125 8.60546875 C1 7 1 7 -1 4 C-0.625 1.8125 -0.625 1.8125 0 0 Z " fill="#1E1D30" transform="translate(78,20)"/>
<path d="M0 0 C0.99 0.33 1.98 0.66 3 1 C3 1.66 3 2.32 3 3 C3.99 2.67 4.98 2.34 6 2 C7.33333333 2.66666667 8.66666667 3.33333333 10 4 C10.99 3.67 11.98 3.34 13 3 C12.67 4.32 12.34 5.64 12 7 C13.65 6.34 15.3 5.68 17 5 C16.67 4.34 16.34 3.68 16 3 C18.35968744 0.90250005 19.54616994 0.03094296 22.75 -0.1875 C23.86375 -0.0946875 23.86375 -0.0946875 25 0 C25.5625 1.9375 25.5625 1.9375 26 4 C25.67 4.33 25.34 4.66 25 5 C24.95936168 6.66617115 24.957279 8.33388095 25 10 C26.98 10.66 28.96 11.32 31 12 C31 12.33 31 12.66 31 13 C19.21452073 13.87299846 9.1848863 7.22452381 -1 2 C-0.67 1.34 -0.34 0.68 0 0 Z " fill="#131F40" transform="translate(124,146)"/>
<path d="M0 0 C3.8799449 2.40987105 7.45330397 5.12672727 11 8 C10.43500935 11.7157043 9.88972722 14.72447281 8 18 C7.34 18 6.68 18 6 18 C6 16.68 6 15.36 6 14 C6.66 13.67 7.32 13.34 8 13 C8.65213292 10.97536745 8.65213292 10.97536745 9 9 C8.2575 8.87625 7.515 8.7525 6.75 8.625 C4 8 4 8 2.125 6.9375 C-0.13706949 5.7687478 -0.13706949 5.7687478 -3.4375 6 C-6.91708548 6 -8.91060458 5.49788869 -12 4 C-12 4.66 -12 5.32 -12 6 C-13.89453221 6.64964023 -15.79068649 7.29455115 -17.6875 7.9375 C-18.74324219 8.29714844 -19.79898438 8.65679687 -20.88671875 9.02734375 C-23.59050583 9.87206518 -26.21386842 10.50893785 -29 11 C-26.48633627 8.03869753 -23.8290311 6.9170783 -20.25 5.5 C-16.84438179 4.14349022 -13.49076815 2.77517558 -10.1875 1.1875 C-6.21272076 -0.29330011 -4.21873994 -0.77343566 0 0 Z " fill="#E3862F" transform="translate(100,41)"/>
<path d="M0 0 C5.59168537 2.94377087 10.98206982 6.1740187 16.3125 9.5625 C16.91078613 9.93818115 17.50907227 10.3138623 18.12548828 10.70092773 C21.46738882 12.84607294 24.31274167 15.07387426 27 18 C20.78469436 18.54520225 15.90675217 17.58802442 10.0625 15.625 C9.39984131 15.40368408 8.73718262 15.18236816 8.05444336 14.9543457 C5.16576144 13.93982602 3.19087715 13.19087715 1 11 C3.64 11.33 6.28 11.66 9 12 C9 11.34 9 10.68 9 10 C9.66 10 10.32 10 11 10 C11 9.34 11 8.68 11 8 C8.69 8.33 6.38 8.66 4 9 C3.67 7.02 3.34 5.04 3 3 C2.01 2.67 1.02 2.34 0 2 C0 1.34 0 0.68 0 0 Z " fill="#F19B2C" transform="translate(150,73)"/>
<path d="M0 0 C2.97 0.495 2.97 0.495 6 1 C8.42857143 7.28571429 8.42857143 7.28571429 7 11 C7.66 11.33 8.32 11.66 9 12 C8.8125 13.8125 8.8125 13.8125 8 16 C4.26212686 18.96831102 0.72226285 19.73765206 -4 20 C-4.99 19.34 -5.98 18.68 -7 18 C-5.01432292 17.77213542 -3.02864583 17.54427083 -1.04296875 17.31640625 C1.19396393 17.02829265 1.19396393 17.02829265 4 16 C3.67 15.34 3.34 14.68 3 14 C2.34 14.66 1.68 15.32 1 16 C-2.625 16.125 -2.625 16.125 -6 16 C-6.33 15.01 -6.66 14.02 -7 13 C-4.03 11.68 -1.06 10.36 2 9 C2.23428313 4.2102679 2.23428313 4.2102679 0 0 Z M-2 13 C-2.33 13.66 -2.66 14.32 -3 15 C-2.01 14.67 -1.02 14.34 0 14 C-0.66 13.67 -1.32 13.34 -2 13 Z " fill="#7B93AB" transform="translate(180,206)"/>
<path d="M0 0 C1.32 0.66 2.64 1.32 4 2 C4 2.66 4 3.32 4 4 C4.804375 4.185625 5.60875 4.37125 6.4375 4.5625 C11.31923861 6.53232435 14.97673753 9.65622186 19 13 C17 14 17 14 14 15 C14 15.66 14 16.32 14 17 C8.2902045 16.58221009 5.39042858 14.42453429 1 11 C1.66 10.67 2.32 10.34 3 10 C3 9.34 3 8.68 3 8 C3.66 8 4.32 8 5 8 C4.2575 7.319375 4.2575 7.319375 3.5 6.625 C2 5 2 5 2 3 C0.68 2.67 -0.64 2.34 -2 2 C-1.34 1.34 -0.68 0.68 0 0 Z M5 15 C7 16 7 16 7 16 Z " fill="#0E1B3F" transform="translate(156,119)"/>
<path d="M0 0 C4.46001569 0.25382203 8.64638547 0.08840363 13 -1 C11.26098199 1.14651068 10.34301736 1.93217485 7.58984375 2.4765625 C6.71457031 2.52554688 5.83929688 2.57453125 4.9375 2.625 C1.33130551 2.7917857 1.33130551 2.7917857 -2 4 C-2.33 3.34 -2.66 2.68 -3 2 C-3.33 2.66 -3.66 3.32 -4 4 C-3.34 4.66 -2.68 5.32 -2 6 C-1.34 6 -0.68 6 0 6 C0.99 6 1.98 6 3 6 C3 6.66 3 7.32 3 8 C4.65 8.33 6.3 8.66 8 9 C7.67 9.99 7.34 10.98 7 12 C7.33 12.99 7.66 13.98 8 15 C3.71825481 14.38832212 0.46232403 12.90040633 -3.3125 10.8125 C-4.38113281 10.24144531 -5.44976562 9.67039062 -6.55078125 9.08203125 C-9 7 -9 7 -9.35546875 3.76171875 C-9.23816406 2.85035156 -9.12085938 1.93898438 -9 1 C-5.54253828 -1.17692034 -3.89562764 -0.88536992 0 0 Z " fill="#EF972F" transform="translate(160,64)"/>
<path d="M0 0 C1.11375 0.1546875 1.11375 0.1546875 2.25 0.3125 C3.25 3.3125 3.25 3.3125 2.25 6.3125 C5.55 6.3125 8.85 6.3125 12.25 6.3125 C12.25 6.9725 12.25 7.6325 12.25 8.3125 C7.3 10.7875 7.3 10.7875 2.25 13.3125 C2.25 14.9625 2.25 16.6125 2.25 18.3125 C-1.38 18.3125 -5.01 18.3125 -8.75 18.3125 C-8.42 16.9925 -8.09 15.6725 -7.75 14.3125 C-6.43 13.9825 -5.11 13.6525 -3.75 13.3125 C-3.75 14.3025 -3.75 15.2925 -3.75 16.3125 C-2.76 16.3125 -1.77 16.3125 -0.75 16.3125 C-0.83378906 15.68601562 -0.91757813 15.05953125 -1.00390625 14.4140625 C-1.15666016 13.18816406 -1.15666016 13.18816406 -1.3125 11.9375 C-1.41691406 11.12539063 -1.52132812 10.31328125 -1.62890625 9.4765625 C-1.75 7.3125 -1.75 7.3125 -0.75 5.3125 C-0.09 5.3125 0.57 5.3125 1.25 5.3125 C1.25 4.3225 1.25 3.3325 1.25 2.3125 C-0.07 2.3125 -1.39 2.3125 -2.75 2.3125 C-2.75 2.9725 -2.75 3.6325 -2.75 4.3125 C-4.07 4.6425 -5.39 4.9725 -6.75 5.3125 C-3.42692308 0.38942308 -3.42692308 0.38942308 0 0 Z " fill="#1A1934" transform="translate(125.75,36.6875)"/>
<path d="M0 0 C4.93037047 1.23259262 5.90068486 2.81368552 8.73046875 6.796875 C10.58846237 10.02120854 11 12.28460786 11 16 C8.4398497 18.5601503 6.24209702 18.70731879 2.71875 19.0390625 C-3.47014268 18.95014163 -9.84646506 17.43568996 -15 14 C1.8929385 14.96355353 1.8929385 14.96355353 9 16 C8.67 14.02 8.34 12.04 8 10 C7.01 10 6.02 10 5 10 C5 11.32 5 12.64 5 14 C2.69 13.67 0.38 13.34 -2 13 C-2 12.67 -2 12.34 -2 12 C-0.02 12 1.96 12 4 12 C2.68 8.04 1.36 4.08 0 0 Z " fill="#E4A455" transform="translate(210,77)"/>
<path d="M0 0 C0.66 0.33 1.32 0.66 2 1 C-4.28380799 6.95005262 -10.68834523 12.75386089 -17.375 18.25 C-17.94492676 18.73960205 -18.51485352 19.2292041 -19.10205078 19.73364258 C-22.09486589 22.14109698 -23.51370987 23.02893259 -27.4140625 22.796875 C-28.26742187 22.53390625 -29.12078125 22.2709375 -30 22 C-26.25 20 -26.25 20 -24 20 C-24.33 19.01 -24.66 18.02 -25 17 C-23.1875 15.4375 -23.1875 15.4375 -21 14 C-20.01 14.33 -19.02 14.66 -18 15 C-17.5875 14.071875 -17.175 13.14375 -16.75 12.1875 C-15.01356341 9.02470477 -14.11808323 7.69267376 -11 6 C-7.75 5.3125 -7.75 5.3125 -5 5 C-4.67 4.01 -4.34 3.02 -4 2 C-2.0625 0.75 -2.0625 0.75 0 0 Z " fill="#D0E8F2" transform="translate(161,163)"/>
<path d="M0 0 C0.721875 0.185625 1.44375 0.37125 2.1875 0.5625 C5.12826973 1.01995307 7.14103058 0.73516357 10 0 C10 2.64 10 5.28 10 8 C10.99 8.33 11.98 8.66 13 9 C13 9.33 13 9.66 13 10 C8.05 10 3.1 10 -2 10 C-2 8.68 -2 7.36 -2 6 C-2.33 5.01 -2.66 4.02 -3 3 C-2.01 2.34 -1.02 1.68 0 1 C0 0.67 0 0.34 0 0 Z " fill="#0A1533" transform="translate(134,126)"/>
<path d="M0 0 C1.32 0 2.64 0 4 0 C3.67 1.32 3.34 2.64 3 4 C1.02 4.33 -0.96 4.66 -3 5 C-2.98839844 5.85722656 -2.97679688 6.71445313 -2.96484375 7.59765625 C-2.9181959 13.50860552 -2.91750084 19.18156704 -4 25 C-5.32 25.33 -6.64 25.66 -8 26 C-7.67 18.41 -7.34 10.82 -7 3 C-4.69 3 -2.38 3 0 3 C0 2.01 0 1.02 0 0 Z " fill="#A3C9E0" transform="translate(76,199)"/>
<path d="M0 0 C2 1 2 1 3 3 C3.08471364 4.81341842 3.10721083 6.62994161 3.09765625 8.4453125 C3.09443359 9.52167969 3.09121094 10.59804687 3.08789062 11.70703125 C3.07951172 12.83496094 3.07113281 13.96289062 3.0625 15.125 C3.05798828 16.26066406 3.05347656 17.39632812 3.04882812 18.56640625 C3.03701615 21.37765638 3.02054507 24.1888023 3 27 C2.01 27 1.02 27 0 27 C-1.29776917 24.40446166 -1.12950035 22.49294473 -1.1328125 19.58984375 C-1.13410156 18.51798828 -1.13539063 17.44613281 -1.13671875 16.34179688 C-1.13285156 15.21837891 -1.12898437 14.09496094 -1.125 12.9375 C-1.12886719 11.81021484 -1.13273438 10.68292969 -1.13671875 9.52148438 C-1.13542969 8.45091797 -1.13414062 7.38035156 -1.1328125 6.27734375 C-1.13168457 5.28984131 -1.13055664 4.30233887 -1.12939453 3.28491211 C-1 1 -1 1 0 0 Z " fill="#4B586D" transform="translate(198,198)"/>
<path d="M0 0 C0.763125 0.20625 1.52625 0.4125 2.3125 0.625 C2.3125 1.285 2.3125 1.945 2.3125 2.625 C3.3025 3.264375 4.2925 3.90375 5.3125 4.5625 C6.7975 5.5834375 6.7975 5.5834375 8.3125 6.625 C8.3125 7.615 8.3125 8.605 8.3125 9.625 C8.9725 9.955 9.6325 10.285 10.3125 10.625 C8.9925 11.615 7.6725 12.605 6.3125 13.625 C6.6425 14.615 6.9725 15.605 7.3125 16.625 C7.9725 16.625 8.6325 16.625 9.3125 16.625 C9.6425 15.305 9.9725 13.985 10.3125 12.625 C10.6425 13.285 10.9725 13.945 11.3125 14.625 C12.3025 14.955 13.2925 15.285 14.3125 15.625 C13.3225 17.275 12.3325 18.925 11.3125 20.625 C9.0025 20.295 6.6925 19.965 4.3125 19.625 C3.44733472 15.12614053 3.00346728 12.60852209 5.3125 8.625 C4.23706217 7.63716806 3.15176783 6.66006057 2.0625 5.6875 C1.45921875 5.14222656 0.8559375 4.59695312 0.234375 4.03515625 C-1.77217305 2.56287201 -3.25752449 2.04970811 -5.6875 1.625 C-2.6875 -0.375 -2.6875 -0.375 0 0 Z " fill="#1D2A47" transform="translate(139.6875,114.375)"/>
<path d="M0 0 C4.23293414 0.48841548 7.15290747 3.00935659 10 6 C11.97958237 9.29930395 13 11.15073315 13 15 C13.66 15 14.32 15 15 15 C16.37482707 16.63260714 17.70647667 18.30225062 19 20 C19.66 20.66 20.32 21.32 21 22 C21.625 24.625 21.625 24.625 22 27 C23.32 27.33 24.64 27.66 26 28 C26.33 30.31 26.66 32.62 27 35 C22.84585063 31.12379552 19.71764399 26.96167431 16.5625 22.25 C16.08022949 21.54061279 15.59795898 20.83122559 15.10107422 20.1003418 C12.56666241 16.3644975 10.08328601 12.59889897 7.625 8.8125 C5.398266 5.43356061 2.98837398 2.72469393 0 0 Z " fill="#A2CBDC" transform="translate(70,117)"/>
<path d="M0 0 C1.98 0.66 3.96 1.32 6 2 C6 2.66 6 3.32 6 4 C7.65 4.33 9.3 4.66 11 5 C10.67 5.99 10.34 6.98 10 8 C9.3296875 8.2784375 8.659375 8.556875 7.96875 8.84375 C7.3190625 9.2253125 6.669375 9.606875 6 10 C5.4456648 12.58877264 5.4456648 12.58877264 5.5 15.5 C5.46875 18.46875 5.46875 18.46875 5 21 C2.96875 22.34375 2.96875 22.34375 1 23 C0.375 21.1875 0.375 21.1875 0 19 C0.66 18.01 1.32 17.02 2 16 C2.06546898 13.48952515 2.06546898 13.48952515 1 11 C-1.45633073 8.68392126 -1.45633073 8.68392126 -4 7 C-2.68 7 -1.36 7 0 7 C0 7.66 0 8.32 0 9 C1.65 9 3.3 9 5 9 C5 8.34 5 7.68 5 7 C5.66 7 6.32 7 7 7 C7 6.34 7 5.68 7 5 C4.03 4.505 4.03 4.505 1 4 C0.67 2.68 0.34 1.36 0 0 Z " fill="#2D2533" transform="translate(108,37)"/>
<path d="M0 0 C7.06316773 7.06316773 6.51226718 21.8302092 6.58422852 31.11645508 C6.59897217 31.98165771 6.61371582 32.84686035 6.62890625 33.73828125 C6.62963135 34.51212158 6.63035645 35.28596191 6.63110352 36.08325195 C6.75283936 36.71577881 6.8745752 37.34830566 7 38 C7.99 38.66 8.98 39.32 10 40 C8.02 40 6.04 40 4 40 C3.98541748 39.33581055 3.97083496 38.67162109 3.95581055 37.98730469 C3.79421138 21.87184797 3.79421138 21.87184797 0.62109375 6.171875 C0 4 0 4 0 0 Z " fill="#ECA34D" transform="translate(198,49)"/>
<path d="M0 0 C0.66 0 1.32 0 2 0 C2 6.6 2 13.2 2 20 C2.99 20.33 3.98 20.66 5 21 C5 21.33 5 21.66 5 22 C8.3 21.67 11.6 21.34 15 21 C11.75294483 24.24705517 9.93878879 25.81535345 5.375 26.25 C3 26 3 26 1 24 C-0.24519986 18.90956032 -0.11644576 13.82869131 -0.0625 8.625 C-0.05798828 7.79355469 -0.05347656 6.96210937 -0.04882812 6.10546875 C-0.03713164 4.07028103 -0.01919935 2.03513077 0 0 Z " fill="#DBA25C" transform="translate(65,68)"/>
<path d="M0 0 C1.32 0 2.64 0 4 0 C4.67595315 1.41225926 5.34040059 2.83002905 6 4.25 C6.37125 5.03890625 6.7425 5.8278125 7.125 6.640625 C8 9 8 9 8 13 C8.99 13 9.98 13 11 13 C10.67 14.98 10.34 16.96 10 19 C8.203125 18.46875 8.203125 18.46875 6 17 C4.7402023 14.4804046 3.71228071 12.12663358 2.75 9.5 C2.481875 8.81035156 2.21375 8.12070313 1.9375 7.41015625 C0 2.33904656 0 2.33904656 0 0 Z " fill="#445168" transform="translate(139,206)"/>
<path d="M0 0 C1.32 0 2.64 0 4 0 C3.6875 1.875 3.6875 1.875 3 4 C2.01 4.66 1.02 5.32 0 6 C-0.58481121 8.88595946 -0.58481121 8.88595946 -0.6875 12.125 C-0.75324219 13.22070312 -0.81898437 14.31640625 -0.88671875 15.4453125 C-0.92410156 16.28835937 -0.96148437 17.13140625 -1 18 C-2.32 18.33 -3.64 18.66 -5 19 C-5 14.38 -5 9.76 -5 5 C-3.35 4.34 -1.7 3.68 0 3 C0 2.01 0 1.02 0 0 Z " fill="#A1C2D8" transform="translate(97,206)"/>
<path d="M0 0 C4 1.33333333 8 2.66666667 12 4 C12 4.66 12 5.32 12 6 C11.34 6 10.68 6 10 6 C10 6.99 10 7.98 10 9 C10.66 9.33 11.32 9.66 12 10 C11.34 10 10.68 10 10 10 C9.67 11.65 9.34 13.3 9 15 C7.68 15.33 6.36 15.66 5 16 C4.34 14.68 3.68 13.36 3 12 C4.32 11.34 5.64 10.68 7 10 C5.49776416 5.79373966 2.71449966 4.26099979 -1 2 C-0.67 1.34 -0.34 0.68 0 0 Z " fill="#182240" transform="translate(142,115)"/>
<path d="M0 0 C0.99 0 1.98 0 3 0 C2.33860073 4.23933026 0.9350566 7.83901257 -0.8125 11.75 C-1.31394531 12.89984375 -1.81539062 14.0496875 -2.33203125 15.234375 C-4 18 -4 18 -6.19921875 18.890625 C-7.09060547 18.94476563 -7.09060547 18.94476563 -8 19 C-3.92134831 3.92134831 -3.92134831 3.92134831 0 0 Z " fill="#9DBCD0" transform="translate(157,206)"/>
<path d="M0 0 C1.32 0.33 2.64 0.66 4 1 C4 1.66 4 2.32 4 3 C5.32 3 6.64 3 8 3 C8 3.99 8 4.98 8 6 C8.99 6.33 9.98 6.66 11 7 C10.67 9.31 10.34 11.62 10 14 C9.01 14 8.02 14 7 14 C6.34 12.35 5.68 10.7 5 9 C4.34 9 3.68 9 3 9 C0 3.375 0 3.375 0 0 Z " fill="#91CEE8" transform="translate(80,123)"/>
<path d="M0 0 C-0.56775536 1.29858939 -1.15491663 2.58870441 -1.75 3.875 C-2.07484375 4.59429687 -2.3996875 5.31359375 -2.734375 6.0546875 C-4.21929686 8.3370674 -5.50415408 9.00375898 -8 10 C-12 5.375 -12 5.375 -12 2 C-11.34 2 -10.68 2 -10 2 C-9.67 1.34 -9.34 0.68 -9 0 C-8.01 0 -7.02 0 -6 0 C-3 -1 -3 -1 0 0 Z " fill="#D0EAF6" transform="translate(189,129)"/>
<path d="M0 0 C5.62640424 -0.2075313 10.49994067 -0.01845989 15.90625 1.5546875 C19.88880936 2.40172438 23.95027604 2.14937506 28 2 C23.92175696 4.71882869 20.42482708 4.42566777 15.6171875 4.65625 C14.32167969 4.82640625 14.32167969 4.82640625 13 5 C12.67 5.66 12.34 6.32 12 7 C7.39104317 5.68315519 3.85859765 3.84801255 0 1 C0 0.67 0 0.34 0 0 Z " fill="#90B2C6" transform="translate(148,114)"/>
<path d="M0 0 C5.61 0 11.22 0 17 0 C17 0.66 17 1.32 17 2 C14.69 2 12.38 2 10 2 C10 9.26 10 16.52 10 24 C9.34 24 8.68 24 8 24 C8 16.74 8 9.48 8 2 C5.36 1.67 2.72 1.34 0 1 C0 0.67 0 0.34 0 0 Z " fill="#213654" transform="translate(59,200)"/>
<path d="M0 0 C11.12633287 -1.1820556 18.47629408 1.83638628 28 7 C27.67 7.99 27.34 8.98 27 10 C25.35 10 23.7 10 22 10 C21.79375 9.38125 21.5875 8.7625 21.375 8.125 C19.34551784 4.98852757 17.63606356 4.82927765 14 4 C11.16215837 3.75675643 8.3340062 3.56342212 5.48828125 3.44140625 C2.66157558 2.93996553 1.76066046 2.2081862 0 0 Z " fill="#182239" transform="translate(165,90)"/>
<path d="M0 0 C5.875 0.875 5.875 0.875 7 2 C10.98781512 2.74703859 10.98781512 2.74703859 15 3 C15.66 2.34 16.32 1.68 17 1 C17 1.66 17 2.32 17 3 C17.66 3 18.32 3 19 3 C18.67 4.65 18.34 6.3 18 8 C19.134375 8.28875 20.26875 8.5775 21.4375 8.875 C22.613125 9.24625 23.78875 9.6175 25 10 C25.33 10.66 25.66 11.32 26 12 C16.63679016 9.83925927 8.45348108 5.41552796 0 1 C0 0.67 0 0.34 0 0 Z " fill="#E8A03F" transform="translate(168,79)"/>
<path d="M0 0 C0 0.66 0 1.32 0 2 C4.4448752 3.81027645 8.9484511 5.41205956 13.4765625 7 C16 8 16 8 19 10 C12.63359524 9.70525904 5.73796238 8.73796238 1 4 C-3.64608858 4.39629124 -3.64608858 4.39629124 -7.9375 6.0625 C-11.23846042 7.56293656 -14.40411117 7.11986296 -18 7 C-18 6.34 -18 5.68 -18 5 C-17.195625 5.103125 -16.39125 5.20625 -15.5625 5.3125 C-11.22208756 4.93176207 -8.69987667 3.36261762 -5.05078125 1.09375 C-3 0 -3 0 0 0 Z " fill="#3C2C24" transform="translate(146,80)"/>
<path d="M0 0 C1.0828125 0.37125 1.0828125 0.37125 2.1875 0.75 C3.35302619 4.94589427 3.27704032 5.57091936 1.1875 9.75 C-1.7825 9.42 -4.7525 9.09 -7.8125 8.75 C-8.125 6.5 -8.125 6.5 -7.8125 3.75 C-5.17968173 0.89151159 -3.95233493 -0.35131866 0 0 Z M-1.8125 1.75 C-2.4725 3.4 -3.1325 5.05 -3.8125 6.75 C-2.1625 6.42 -0.5125 6.09 1.1875 5.75 C1.1875 4.43 1.1875 3.11 1.1875 1.75 C0.1975 1.75 -0.7925 1.75 -1.8125 1.75 Z " fill="#475B73" transform="translate(177.8125,208.25)"/>
<path d="M0 0 C0.99 0 1.98 0 3 0 C3 1.65 3 3.3 3 5 C1.06532058 5.83986084 -0.87285129 6.67168027 -2.8125 7.5 C-4.43091797 8.19609375 -4.43091797 8.19609375 -6.08203125 8.90625 C-9 10 -9 10 -12 10 C-12 9.34 -12 8.68 -12 8 C-10.23596271 6.74163402 -8.41220501 5.5661735 -6.5625 4.4375 C-3.09563564 2.46466077 -3.09563564 2.46466077 0 0 Z " fill="#141B38" transform="translate(75,43)"/>
<path d="M0 0 C-0.33 0.99 -0.66 1.98 -1 3 C-2.98 3.33 -4.96 3.66 -7 4 C-7 3.34 -7 2.68 -7 2 C-11.62 2.66 -16.24 3.32 -21 4 C-21 4.66 -21 5.32 -21 6 C-24.96 6 -28.92 6 -33 6 C-33 5.67 -33 5.34 -33 5 C-32.05640625 4.81824219 -32.05640625 4.81824219 -31.09375 4.6328125 C-26.95346709 3.82221494 -22.8361306 2.99070808 -18.75 1.9375 C-12.36066967 0.34016742 -6.5535121 -0.13107024 0 0 Z " fill="#4A2E29" transform="translate(131,25)"/>
<path d="M0 0 C1.875 0.3125 1.875 0.3125 4 1 C4.66 1.99 5.32 2.98 6 4 C4.3990869 5.15037471 2.79414775 6.29514816 1.1875 7.4375 C-0.15248047 8.39462891 -0.15248047 8.39462891 -1.51953125 9.37109375 C-4 11 -4 11 -7 12 C-5.44298069 7.32894208 -2.91552627 3.91294315 0 0 Z " fill="#D38848" transform="translate(82,30)"/>
<path d="M0 0 C0.9075 0.639375 1.815 1.27875 2.75 1.9375 C5.6691249 4.05516674 5.6691249 4.05516674 8.0625 4.4375 C10 5 10 5 12.23828125 7.2734375 C15.03355529 10.03312814 17.83397743 12.05534628 21.125 14.1875 C22.15882812 14.86167969 23.19265625 15.53585938 24.2578125 16.23046875 C25.16273437 16.81441406 26.06765625 17.39835937 27 18 C27.99 18.66 28.98 19.32 30 20 C29.67 20.66 29.34 21.32 29 22 C21.37902329 17.24422871 13.90042694 12.3351458 6.625 7.0625 C5.96491943 6.59030029 5.30483887 6.11810059 4.62475586 5.6315918 C3.04425355 4.47233256 1.51615767 3.24223003 0 2 C0 1.34 0 0.68 0 0 Z " fill="#21304A" transform="translate(92,125)"/>
<path d="M0 0 C1.32 0 2.64 0 4 0 C5.79716977 1.9725034 7.39128862 3.89258809 9 6 C9.98290968 7.01680311 10.97334787 8.02738219 12 9 C11.01 9 10.02 9 9 9 C10.32 10.65 11.64 12.3 13 14 C7.25594709 11.56982377 2.73234611 7.61648922 0 2 C0 1.34 0 0.68 0 0 Z " fill="#8CC1D5" transform="translate(40,84)"/>
<path d="M0 0 C1.32 0.33 2.64 0.66 4 1 C4 6.61 4 12.22 4 18 C3.01 18 2.02 18 1 18 C0.67 12.06 0.34 6.12 0 0 Z " fill="#ABCEDF" transform="translate(127,206)"/>
<path d="M0 0 C0.66 0.66 1.32 1.32 2 2 C-7.71428571 10 -7.71428571 10 -11 10 C-11 10.66 -11 11.32 -11 12 C-8.36 11.34 -5.72 10.68 -3 10 C-4.97420135 12.52259061 -5.96745642 12.9929808 -9.1875 13.6875 C-10.5796875 13.8421875 -10.5796875 13.8421875 -12 14 C-12.66 12.68 -13.32 11.36 -14 10 C-13.15695313 9.44570313 -12.31390625 8.89140625 -11.4453125 8.3203125 C-10.34960938 7.59585938 -9.25390625 6.87140625 -8.125 6.125 C-7.03445312 5.40570313 -5.94390625 4.68640625 -4.8203125 3.9453125 C-2.01572502 2.13611692 -2.01572502 2.13611692 0 0 Z " fill="#414253" transform="translate(74,41)"/>
<path d="M0 0 C2.97 0.495 2.97 0.495 6 1 C8.125 6.625 8.125 6.625 7 10 C4.4375 11.1875 4.4375 11.1875 2 12 C2.03480469 11.07767578 2.03480469 11.07767578 2.0703125 10.13671875 C2.08835938 9.32847656 2.10640625 8.52023438 2.125 7.6875 C2.15980469 6.48673828 2.15980469 6.48673828 2.1953125 5.26171875 C2.15817322 2.71611424 2.15817322 2.71611424 0 0 Z " fill="#95B4C7" transform="translate(180,206)"/>
<path d="M0 0 C4.48526557 -0.21358407 7.80790854 0.416321 12 2 C12.99 2.33 13.98 2.66 15 3 C14.67 4.98 14.34 6.96 14 9 C7.07 5.04 7.07 5.04 0 1 C0 0.67 0 0.34 0 0 Z " fill="#BFDDEF" transform="translate(160,121)"/>
<path d="M0 0 C2.3125 1.8125 2.3125 1.8125 3.3125 4.8125 C2.136875 4.791875 0.96125 4.77125 -0.25 4.75 C-4.16163467 4.74302739 -7.83247944 5.16999657 -11.6875 5.8125 C-10.6875 2.8125 -10.6875 2.8125 -8.875 1.75 C-8.153125 1.440625 -7.43125 1.13125 -6.6875 0.8125 C-5.7284375 0.1628125 -5.7284375 0.1628125 -4.75 -0.5 C-2.6875 -1.1875 -2.6875 -1.1875 0 0 Z " fill="#212840" transform="translate(124.6875,103.1875)"/>
<path d="M0 0 C0.99 0 1.98 0 3 0 C2.773125 1.216875 2.54625 2.43375 2.3125 3.6875 C1.88023657 6.97620691 1.93936847 7.87346463 3.4375 11 C4.2109375 11.99 4.2109375 11.99 5 13 C0.25 12.25 0.25 12.25 -2 10 C-2.265625 8.125 -2.265625 8.125 -2.25 6 C-2.25515625 5.29875 -2.2603125 4.5975 -2.265625 3.875 C-2 2 -2 2 0 0 Z " fill="#8EADC5" transform="translate(114,209)"/>
<path d="M0 0 C0 0.66 0 1.32 0 2 C-4.455 2.495 -4.455 2.495 -9 3 C-11.23186987 7.33245329 -11.11328599 10.28994391 -10 15 C-8.57324827 17.38028291 -8.57324827 17.38028291 -7 19 C-10.29445136 17.46258936 -12.48989495 16.37335974 -13.8125 12.8125 C-14.07859081 8.82113783 -12.9272116 6.46898088 -11 3 C-7.38430524 -0.02936588 -4.63921823 -0.32366639 0 0 Z " fill="#5C677B" transform="translate(180,205)"/>
<path d="M0 0 C1.875 1.5625 1.875 1.5625 3 3 C0.98177083 2.70703125 -1.03645833 2.4140625 -3.0546875 2.12109375 C-5.08140667 1.8315703 -5.08140667 1.8315703 -7 3 C-7.65213292 5.02463255 -7.65213292 5.02463255 -8 7 C-7.01 7.33 -6.02 7.66 -5 8 C-6.32 8.33 -7.64 8.66 -9 9 C-10.25664978 6.09399739 -11 4.20395416 -11 1 C-6.94405371 -1.02797315 -4.37353074 -1.23599782 0 0 Z " fill="#111B3C" transform="translate(134,112)"/>
<path d="M0 0 C1.41750563 0.11509661 2.83401169 0.24253658 4.25 0.375 C5.03890625 0.44460937 5.8278125 0.51421875 6.640625 0.5859375 C9.085877 1.01507113 10.84836903 1.78600638 13 3 C13 3.66 13 4.32 13 5 C13.66 5 14.32 5 15 5 C15 5.66 15 6.32 15 7 C14.01 7 13.02 7 12 7 C12 6.34 12 5.68 12 5 C8.37 4.01 4.74 3.02 1 2 C1.99 3.65 2.98 5.3 4 7 C3.01 7 2.02 7 1 7 C-1 4 -1 4 -0.625 1.8125 C-0.41875 1.214375 -0.2125 0.61625 0 0 Z " fill="#3F3A44" transform="translate(78,20)"/>
<path d="M0 0 C1.32 0 2.64 0 4 0 C3.67 1.32 3.34 2.64 3 4 C0.03 4 -2.94 4 -6 4 C-6 11.26 -6 18.52 -6 26 C-6.66 25.67 -7.32 25.34 -8 25 C-7.67 17.74 -7.34 10.48 -7 3 C-4.69 3 -2.38 3 0 3 C0 2.01 0 1.02 0 0 Z " fill="#81A0BA" transform="translate(76,199)"/>
<path d="M0 0 C2.54194161 0.14188985 5.08347993 0.28839155 7.625 0.4375 C8.69427734 0.49647461 8.69427734 0.49647461 9.78515625 0.55664062 C13.91803682 0.80309681 17.92269024 1.23470053 22 2 C21.01 2.495 21.01 2.495 20 3 C20 3.66 20 4.32 20 5 C12.88515313 4.6143354 6.64558134 3.60900601 0 1 C0 0.67 0 0.34 0 0 Z " fill="#E6A154" transform="translate(195,91)"/>
<path d="M0 0 C1.79646436 0.92827339 3.58703557 1.86795838 5.375 2.8125 C6.37273437 3.33457031 7.37046875 3.85664062 8.3984375 4.39453125 C11 6 11 6 13 9 C7.5610835 9.21755666 3.12919186 9.10428384 -2 7 C0.89234315 6.17361624 2.88742431 6 6 6 C5.01 5.38125 4.02 4.7625 3 4.125 C2.01 3.42375 1.02 2.7225 0 2 C0 1.34 0 0.68 0 0 Z " fill="#D2974B" transform="translate(164,82)"/>
<path d="M0 0 C1.8125 0.1875 1.8125 0.1875 4 1 C5.8125 3.25 5.8125 3.25 7 6 C6.6875 8.8125 6.6875 8.8125 6 11 C5.34 11 4.68 11 4 11 C3.32880451 9.5437455 2.66318193 8.08492133 2 6.625 C1.62875 5.81289062 1.2575 5.00078125 0.875 4.1640625 C0 2 0 2 0 0 Z " fill="#9EBDD0" transform="translate(143,206)"/>
<path d="M0 0 C2.97 0 5.94 0 9 0 C9.66 1.65 10.32 3.3 11 5 C9.35 4.34 7.7 3.68 6 3 C6 2.34 6 1.68 6 1 C5.31292969 1.37253906 4.62585938 1.74507813 3.91796875 2.12890625 C3.01691406 2.60199219 2.11585938 3.07507813 1.1875 3.5625 C0.29417969 4.03816406 -0.59914062 4.51382813 -1.51953125 5.00390625 C-4 6 -4 6 -7 5 C-5.68 3.68 -4.36 2.36 -3 1 C-2.01 1.33 -1.02 1.66 0 2 C0 1.34 0 0.68 0 0 Z " fill="#D58E37" transform="translate(140,79)"/>
<path d="M0 0 C1.32 0.33 2.64 0.66 4 1 C4.33 2.98 4.66 4.96 5 7 C6.32 7.33 7.64 7.66 9 8 C9.33 10.31 9.66 12.62 10 15 C6.18293034 11.4010486 2.57001108 7.61508373 0 3 C0 2.01 0 1.02 0 0 Z " fill="#A9D2E4" transform="translate(87,137)"/>
<path d="M0 0 C6.75 0.75 6.75 0.75 9 3 C9.1953125 5.1640625 9.1953125 5.1640625 9.125 7.625 C9.10695313 8.44226563 9.08890625 9.25953125 9.0703125 10.1015625 C9.03550781 11.04128906 9.03550781 11.04128906 9 12 C7.02 12.66 5.04 13.32 3 14 C3.495 13.649375 3.99 13.29875 4.5 12.9375 C6.73063966 10.05625711 6.19980621 7.52990974 6 4 C4.02 3.01 2.04 2.02 0 1 C0 0.67 0 0.34 0 0 Z " fill="#3F4D65" transform="translate(116,208)"/>
<path d="M0 0 C3.71599191 -0.20086443 4.77208445 -0.1519437 8 2 C9.65549531 2.38499891 11.3222433 2.72793135 13 3 C12.67 3.99 12.34 4.98 12 6 C7.43545749 5.45660208 4.0271824 4.20536179 0 2 C0 1.34 0 0.68 0 0 Z " fill="#94BBCF" transform="translate(82,106)"/>
<path d="M0 0 C6.6521197 3.26558603 6.6521197 3.26558603 8.125 6.375 C7.96151921 9.80809659 6.71101869 12.05704785 5 15 C4.34 15 3.68 15 3 15 C3 13.68 3 12.36 3 11 C3.66 10.67 4.32 10.34 5 10 C5.65213292 7.97536745 5.65213292 7.97536745 6 6 C4.68 6 3.36 6 2 6 C2 4.68 2 3.36 2 2 C1.34 2 0.68 2 0 2 C0 1.34 0 0.68 0 0 Z " fill="#C37B37" transform="translate(103,44)"/>
<path d="M0 0 C0.825 0.556875 1.65 1.11375 2.5 1.6875 C5.76181023 3.87244465 9.10202329 5.91751596 12.4609375 7.94921875 C12.96882813 8.29597656 13.47671875 8.64273438 14 9 C14 9.33 14 9.66 14 10 C11.69 10.33 9.38 10.66 7 11 C7.33 10.01 7.66 9.02 8 8 C6.8553125 7.5978125 6.8553125 7.5978125 5.6875 7.1875 C3.09516021 6.04204753 1.69924463 5.23584819 0 3 C0 2.01 0 1.02 0 0 Z " fill="#82BBD2" transform="translate(48,98)"/>
<path d="M0 0 C9.59453303 5.0022779 9.59453303 5.0022779 13 9 C10.03 9 7.06 9 4 9 C3.67 7.02 3.34 5.04 3 3 C2.01 2.67 1.02 2.34 0 2 C0 1.34 0 0.68 0 0 Z " fill="#EA9D42" transform="translate(150,73)"/>
<path d="M0 0 C0 0.66 0 1.32 0 2 C-1.32 2.33 -2.64 2.66 -4 3 C-4.33 4.32 -4.66 5.64 -5 7 C-6.32 7 -7.64 7 -9 7 C-9.33 7.99 -9.66 8.98 -10 10 C-10.33 8.35 -10.66 6.7 -11 5 C-9.54462432 4.16151196 -8.08559627 3.32936066 -6.625 2.5 C-5.81289062 2.0359375 -5.00078125 1.571875 -4.1640625 1.09375 C-2 0 -2 0 0 0 Z " fill="#C57D3B" transform="translate(138,45)"/>
<path d="M0 0 C0.66 0.33 1.32 0.66 2 1 C0.52307692 5.67692308 0.52307692 5.67692308 -2.125 7.3125 C-2.74375 7.539375 -3.3625 7.76625 -4 8 C-5.32 6.02 -6.64 4.04 -8 2 C-6.8553125 2.3403125 -6.8553125 2.3403125 -5.6875 2.6875 C-4.800625 2.790625 -3.91375 2.89375 -3 3 C-1.1645201 1.66621425 -1.1645201 1.66621425 0 0 Z " fill="#C5D8E0" transform="translate(185,131)"/>
<path d="M0 0 C2.64 0 5.28 0 8 0 C8 0.99 8 1.98 8 3 C7.01 3.495 7.01 3.495 6 4 C6 4.66 6 5.32 6 6 C6.66 6.33 7.32 6.66 8 7 C7.01 7.495 7.01 7.495 6 8 C5.01 7.67 4.02 7.34 3 7 C2.814375 5.824375 2.814375 5.824375 2.625 4.625 C2.20882007 1.85942178 2.20882007 1.85942178 0 0 Z " fill="#1C2848" transform="translate(126,126)"/>
<path d="M0 0 C2.0622048 -0.054348 4.12482816 -0.09294961 6.1875 -0.125 C7.33605469 -0.14820312 8.48460937 -0.17140625 9.66796875 -0.1953125 C12.91740372 -0.00484152 15.08660521 0.60639873 18 2 C14.64185801 4.05616732 12.32486455 4.17743626 8.4375 3.8125 C7.48746094 3.73644531 6.53742188 3.66039063 5.55859375 3.58203125 C2.75451803 2.94415754 1.77010051 2.21113565 0 0 Z " fill="#312B25" transform="translate(165,90)"/>
<path d="M0 0 C0 0.33 0 0.66 0 1 C-3.63 1 -7.26 1 -11 1 C-11.33 1.99 -11.66 2.98 -12 4 C-12.99 4 -13.98 4 -15 4 C-15 4.66 -15 5.32 -15 6 C-16.65 6 -18.3 6 -20 6 C-18.71170846 3.42341692 -17.58096973 3.21879126 -15 2 C-14.29875 1.443125 -13.5975 0.88625 -12.875 0.3125 C-8.53786976 -1.66749424 -4.6084721 -0.74272463 0 0 Z " fill="#C17C38" transform="translate(128,55)"/>
<path d="M0 0 C0.33 0 0.66 0 1 0 C1.07476562 0.88042969 1.14953125 1.76085938 1.2265625 2.66796875 C1.76506459 10.28447696 1.76506459 10.28447696 6 16.1875 C6.99 16.785625 7.98 17.38375 9 18 C9.66 18.66 10.32 19.32 11 20 C8.05614891 19.93153835 5.84186683 19.67001288 3.48828125 17.796875 C-1.04714958 12.44272743 -0.49503533 6.69947814 0 0 Z " fill="#F6AD3D" transform="translate(149,44)"/>
<path d="M0 0 C0 0.66 0 1.32 0 2 C-1.6210103 2.69685498 -3.24696066 3.38222861 -4.875 4.0625 C-5.77992187 4.44535156 -6.68484375 4.82820313 -7.6171875 5.22265625 C-10 6 -10 6 -12 5 C-10.35 4.67 -8.7 4.34 -7 4 C-7 3.34 -7 2.68 -7 2 C-8.65 2 -10.3 2 -12 2 C-12 1.67 -12 1.34 -12 1 C-7.93631321 0.22596442 -4.13574827 -0.0984702 0 0 Z " fill="#221B2A" transform="translate(124,27)"/>
<path d="M0 0 C1.48280196 0.78483659 2.9611498 1.57809334 4.4375 2.375 C5.67306641 3.03628906 5.67306641 3.03628906 6.93359375 3.7109375 C9 5 9 5 10 7 C9.4225 6.835 8.845 6.67 8.25 6.5 C5.73335631 5.85537969 5.73335631 5.85537969 2 6 C1.34 6 0.68 6 0 6 C0 4.02 0 2.04 0 0 Z " fill="#96C3D9" transform="translate(103,137)"/>
<path d="M0 0 C0.66 0.33 1.32 0.66 2 1 C0.5625 3.9375 0.5625 3.9375 -2 7 C-4.9997145 7.82092015 -7.89851659 7.9867458 -11 8 C-7.45960866 5.0843836 -3.8373228 2.49872182 0 0 Z " fill="#41312A" transform="translate(86,85)"/>
<path d="M0 0 C0.33 0.99 0.66 1.98 1 3 C1.99 3 2.98 3 4 3 C4 2.01 4 1.02 4 0 C4.66 0 5.32 0 6 0 C6.33 1.65 6.66 3.3 7 5 C3.37 5 -0.26 5 -4 5 C-3.67 3.68 -3.34 2.36 -3 1 C-2.01 0.67 -1.02 0.34 0 0 Z " fill="#382B27" transform="translate(121,50)"/>
<path d="M0 0 C0.33 0.66 0.66 1.32 1 2 C0.7009375 2.59425781 0.401875 3.18851563 0.09375 3.80078125 C-1.52897648 7.06362057 -1.44579422 10.26193622 -1.65625 13.85546875 C-1.7696875 14.56316406 -1.883125 15.27085938 -2 16 C-2.66 16.33 -3.32 16.66 -4 17 C-4.19573608 15.56359829 -4.38127816 14.12580496 -4.5625 12.6875 C-4.66691406 11.88699219 -4.77132812 11.08648437 -4.87890625 10.26171875 C-5 8 -5 8 -4 5 C-3.34 4.67 -2.68 4.34 -2 4 C-0.86649466 1.98330173 -0.86649466 1.98330173 0 0 Z " fill="#EF992F" transform="translate(151,38)"/>
<path d="M0 0 C0.66 0 1.32 0 2 0 C2.33 0.66 2.66 1.32 3 2 C8.32170494 2.29562367 8.32170494 2.29562367 13 0 C13 0.99 13 1.98 13 3 C8.93150591 5.71232939 6.83523216 5.30699887 2 5 C1.34 4.34 0.68 3.68 0 3 C0 2.01 0 1.02 0 0 Z " fill="#2C405D" transform="translate(171,219)"/>
<path d="M0 0 C-1 3 -1 3 -4 5 C-5.32 5 -6.64 5 -8 5 C-8 6.98 -8 8.96 -8 11 C-8.33 11 -8.66 11 -9 11 C-9.36658354 4.52369077 -9.36658354 4.52369077 -7.6875 2.125 C-5.08162401 0.38774934 -3.11698611 0 0 0 Z " fill="#8CB2BF" transform="translate(53,70)"/>
<path d="M0 0 C0.66 0.33 1.32 0.66 2 1 C0.68 5.62 -0.64 10.24 -2 15 C-2.66 15 -3.32 15 -4 15 C-3.63495936 9.33557626 -2.9445679 4.99296295 0 0 Z " fill="#E39D56" transform="translate(70,52)"/>
<path d="M0 0 C1.27875 0.103125 2.5575 0.20625 3.875 0.3125 C4.95394531 0.39951172 4.95394531 0.39951172 6.0546875 0.48828125 C8 1 8 1 10 4 C6.6875 4.6875 6.6875 4.6875 3 5 C1.0625 3.6875 1.0625 3.6875 0 2 C0 1.34 0 0.68 0 0 Z " fill="#0E1A3B" transform="translate(79,22)"/>
<path d="M0 0 C0.99 0.33 1.98 0.66 3 1 C3 1.33 3 1.66 3 2 C6.3 1.67 9.6 1.34 13 1 C10.14597875 3.85402125 8.83641173 5.08656864 5 6 C2.1875 4.8125 2.1875 4.8125 0 3 C0 2.01 0 1.02 0 0 Z " fill="#E19B3D" transform="translate(67,88)"/>
<path d="M0 0 C1.65 0 3.3 0 5 0 C4.01 0.495 4.01 0.495 3 1 C3.56371414 4.26954202 4.49962266 5.82575883 7 8 C3.18833789 7.47060248 0.88157751 6.57283706 -2 4 C-2.33 3.34 -2.66 2.68 -3 2 C-2.01 2 -1.02 2 0 2 C0 1.34 0 0.68 0 0 Z " fill="#051432" transform="translate(156,126)"/>
<path d="M0 0 C0.763125 0.20625 1.52625 0.4125 2.3125 0.625 C2.3125 1.285 2.3125 1.945 2.3125 2.625 C3.3025 3.285 4.2925 3.945 5.3125 4.625 C4.9825 5.615 4.6525 6.605 4.3125 7.625 C3.405 6.820625 2.4975 6.01625 1.5625 5.1875 C-0.79059908 3.21357329 -2.55688046 1.98622533 -5.6875 1.625 C-2.6875 -0.375 -2.6875 -0.375 0 0 Z " fill="#2D384F" transform="translate(139.6875,114.375)"/>
<path d="M0 0 C2 1.375 2 1.375 4 3 C4 3.66 4 4.32 4 5 C6.97 5.495 6.97 5.495 10 6 C9.67 7.32 9.34 8.64 9 10 C5.32408105 8.9789114 4.0660202 8.08564783 1.6875 5 C0 2 0 2 0 0 Z " fill="#20273E" transform="translate(126,101)"/>
<path d="M0 0 C1.11375 0.1546875 1.11375 0.1546875 2.25 0.3125 C3.25 3.3125 3.25 3.3125 2.25 6.3125 C3.57 6.6425 4.89 6.9725 6.25 7.3125 C4.6 7.3125 2.95 7.3125 1.25 7.3125 C1.25 5.6625 1.25 4.0125 1.25 2.3125 C-0.07 2.3125 -1.39 2.3125 -2.75 2.3125 C-2.75 2.9725 -2.75 3.6325 -2.75 4.3125 C-4.07 4.6425 -5.39 4.9725 -6.75 5.3125 C-3.42692308 0.38942308 -3.42692308 0.38942308 0 0 Z " fill="#492F28" transform="translate(125.75,36.6875)"/>
<path d="M0 0 C8.86956522 0.73913043 8.86956522 0.73913043 12 4 C12 4.66 12 5.32 12 6 C7.24518354 5.42365861 4.02951788 3.44931479 0 1 C0 0.67 0 0.34 0 0 Z " fill="#E9A040" transform="translate(156,73)"/>
<path d="M0 0 C2.475 0.495 2.475 0.495 5 1 C5 1.66 5 2.32 5 3 C6.2375 2.649375 7.475 2.29875 8.75 1.9375 C11.903292 1.04406727 13.86774164 0.99118706 17 2 C12.72105157 4.4312207 8.83692755 4.76325829 4 4 C1.4375 2 1.4375 2 0 0 Z " fill="#B36F3E" transform="translate(93,26)"/>
<path d="M0 0 C1.32 0.66 2.64 1.32 4 2 C3.34 2 2.68 2 2 2 C1.92572162 5.34252724 1.93453047 7.8035914 3 11 C1.68 10.34 0.36 9.68 -1 9 C-0.67 6.03 -0.34 3.06 0 0 Z " fill="#333F5D" transform="translate(88,114)"/>
<path d="M0 0 C1.32 0.66 2.64 1.32 4 2 C4 2.66 4 3.32 4 4 C6.475 4.99 6.475 4.99 9 6 C8.67 6.66 8.34 7.32 8 8 C6.02 7.01 4.04 6.02 2 5 C2 4.34 2 3.68 2 3 C0.68 2.67 -0.64 2.34 -2 2 C-1.34 1.34 -0.68 0.68 0 0 Z " fill="#3F536A" transform="translate(156,119)"/>
<path d="M0 0 C0 0.99 0 1.98 0 3 C-3.04300316 4.52150158 -5.654085 4.23899393 -9 4 C-9.66 3.01 -10.32 2.02 -11 1 C-10.06027344 1.01740234 -10.06027344 1.01740234 -9.1015625 1.03515625 C-7.87566406 1.04869141 -7.87566406 1.04869141 -6.625 1.0625 C-5.40683594 1.07990234 -5.40683594 1.07990234 -4.1640625 1.09765625 C-1.95062858 1.14466334 -1.95062858 1.14466334 0 0 Z " fill="#293B57" transform="translate(123,220)"/>
<path d="M0 0 C0.99 0.33 1.98 0.66 3 1 C3 1.66 3 2.32 3 3 C3.99 2.67 4.98 2.34 6 2 C7.32 3.32 8.64 4.64 10 6 C9.01 6.495 9.01 6.495 8 7 C5.8359375 6.00390625 5.8359375 6.00390625 3.375 4.5625 C2.55773437 4.08941406 1.74046875 3.61632812 0.8984375 3.12890625 C0.27195312 2.75636719 -0.35453125 2.38382813 -1 2 C-0.67 1.34 -0.34 0.68 0 0 Z " fill="#1C2843" transform="translate(124,146)"/>
<path d="M0 0 C1.32 0.33 2.64 0.66 4 1 C3.67 1.66 3.34 2.32 3 3 C2.76827173 5.54615009 2.58105471 8.07396225 2.4375 10.625 C2.39431641 11.33140625 2.35113281 12.0378125 2.30664062 12.765625 C2.20055249 14.51018537 2.09977111 16.25506697 2 18 C1.67 18 1.34 18 1 18 C0.67 12.06 0.34 6.12 0 0 Z " fill="#97BBCF" transform="translate(127,206)"/>
<path d="M0 0 C5.41538462 -0.36923077 5.41538462 -0.36923077 8.375 1.5 C8.91125 1.995 9.4475 2.49 10 3 C9.67 3.66 9.34 4.32 9 5 C5.22454612 3.90931332 2.52956528 3.0916909 0 0 Z " fill="#ABC9DB" transform="translate(160,121)"/>
<path d="M0 0 C0.99 0.33 1.98 0.66 3 1 C1.68 3.64 0.36 6.28 -1 9 C-2.65 9 -4.3 9 -6 9 C-4.68 8.67 -3.36 8.34 -2 8 C-1.34 5.36 -0.68 2.72 0 0 Z " fill="#282E43" transform="translate(196,108)"/>
<path d="M0 0 C0.66 0.33 1.32 0.66 2 1 C1.34 2.65 0.68 4.3 0 6 C1.32 6.33 2.64 6.66 4 7 C1.69 6.67 -0.62 6.34 -3 6 C-3 4.35 -3 2.7 -3 1 C-2.01 0.67 -1.02 0.34 0 0 Z " fill="#E78736" transform="translate(115,33)"/>
<path d="M0 0 C-0.33 1.32 -0.66 2.64 -1 4 C-3.64 4.33 -6.28 4.66 -9 5 C-9 4.34 -9 3.68 -9 3 C-2.25 0 -2.25 0 0 0 Z " fill="#8AA1B8" transform="translate(182,216)"/>
<path d="M0 0 C0.99 0 1.98 0 3 0 C2.34 2.31 1.68 4.62 1 7 C0.01 7 -0.98 7 -2 7 C-1.125 1.125 -1.125 1.125 0 0 Z " fill="#8FA9C1" transform="translate(173,209)"/>
<path d="M0 0 C1.32 0 2.64 0 4 0 C3.67 1.32 3.34 2.64 3 4 C-0.3 4 -3.6 4 -7 4 C-7 3.67 -7 3.34 -7 3 C-4.69 3 -2.38 3 0 3 C0 2.01 0 1.02 0 0 Z " fill="#7E97AD" transform="translate(76,199)"/>
<path d="M0 0 C9.21052632 3.42105263 9.21052632 3.42105263 11 7 C9.68 7 8.36 7 7 7 C7 6.34 7 5.68 7 5 C6.21625 4.731875 5.4325 4.46375 4.625 4.1875 C2 3 2 3 0 0 Z " fill="#1C2841" transform="translate(94,115)"/>
<path d="M0 0 C2.375 0.25 2.375 0.25 5 1 C6.3125 3.0625 6.3125 3.0625 7 5 C5.35 5 3.7 5 2 5 C2 4.34 2 3.68 2 3 C1.34 3 0.68 3 0 3 C0 2.01 0 1.02 0 0 Z " fill="#182743" transform="translate(90,116)"/>
<path d="M0 0 C-0.33 1.65 -0.66 3.3 -1 5 C-2.32 5 -3.64 5 -5 5 C-4.625 3.0625 -4.625 3.0625 -4 1 C-2 0 -2 0 0 0 Z " fill="#292129" transform="translate(113,54)"/>
<path d="M0 0 C0.66 0.33 1.32 0.66 2 1 C0.76055724 1.86941494 -0.49207059 2.72005457 -1.75 3.5625 C-2.44609375 4.03816406 -3.1421875 4.51382813 -3.859375 5.00390625 C-6 6 -6 6 -8.265625 5.65234375 C-8.83796875 5.43707031 -9.4103125 5.22179688 -10 5 C-8.38007835 4.13624104 -6.75388139 3.28424146 -5.125 2.4375 C-4.22007813 1.96183594 -3.31515625 1.48617187 -2.3828125 0.99609375 C-1.20332031 0.50302734 -1.20332031 0.50302734 0 0 Z " fill="#AA703B" transform="translate(81,46)"/>
<path d="M0 0 C0.99 0.33 1.98 0.66 3 1 C2.34 5.29 1.68 9.58 1 14 C0.67 14 0.34 14 0 14 C0 9.38 0 4.76 0 0 Z " fill="#1E304E" transform="translate(90,208)"/>
<path d="M0 0 C0.99 0 1.98 0 3 0 C2.125 4.75 2.125 4.75 1 7 C0.34 7 -0.32 7 -1 7 C-1.04254356 5.00045254 -1.04080783 2.99958364 -1 1 C-0.67 0.67 -0.34 0.34 0 0 Z " fill="#B1CDDE" transform="translate(157,206)"/>
<path d="M0 0 C0.99 0 1.98 0 3 0 C5.25 2.3125 5.25 2.3125 7 5 C6.67 5.99 6.34 6.98 6 8 C4.99403703 7.0479279 3.99538437 6.08812654 3 5.125 C2.443125 4.59132812 1.88625 4.05765625 1.3125 3.5078125 C0 2 0 2 0 0 Z " fill="#BCD7E4" transform="translate(105,160)"/>
<path d="M0 0 C1.46015291 0.28241641 2.91809793 0.57626614 4.375 0.875 C5.18710938 1.03742188 5.99921875 1.19984375 6.8359375 1.3671875 C9 2 9 2 11 4 C10.01 4.33 9.02 4.66 8 5 C7.34 4.67 6.68 4.34 6 4 C6 3.34 6 2.68 6 2 C3.69 2.33 1.38 2.66 -1 3 C-0.67 2.01 -0.34 1.02 0 0 Z " fill="#7DB3CB" transform="translate(81,104)"/>
<path d="M0 0 C1.98 0 3.96 0 6 0 C6 0.99 6 1.98 6 3 C3.69 3 1.38 3 -1 3 C-0.67 2.01 -0.34 1.02 0 0 Z " fill="#1E2440" transform="translate(202,102)"/>
<path d="M0 0 C1.65 0 3.3 0 5 0 C5.33 1.65 5.66 3.3 6 5 C4.35 4.67 2.7 4.34 1 4 C0.67 2.68 0.34 1.36 0 0 Z " fill="#1F253C" transform="translate(113,97)"/>
<path d="M0 0 C0.53625 0.226875 1.0725 0.45375 1.625 0.6875 C-0.355 1.0175 -2.335 1.3475 -4.375 1.6875 C-4.375 3.3375 -4.375 4.9875 -4.375 6.6875 C-5.695 6.0275 -7.015 5.3675 -8.375 4.6875 C-8.375 4.0275 -8.375 3.3675 -8.375 2.6875 C-2.95961538 -0.38942308 -2.95961538 -0.38942308 0 0 Z " fill="#9F683F" transform="translate(116.375,32.3125)"/>
<path d="M0 0 C0.66 0 1.32 0 2 0 C2.625 1.875 2.625 1.875 3 4 C1 6 1 6 -2.125 6.125 C-3.548125 6.063125 -3.548125 6.063125 -5 6 C-4.175 5.195625 -3.35 4.39125 -2.5 3.5625 C0.11638731 1.47736982 0.11638731 1.47736982 0 0 Z " fill="#382B31" transform="translate(87,32)"/>
<path d="M0 0 C-0.33 0.99 -0.66 1.98 -1 3 C-2.98 3.33 -4.96 3.66 -7 4 C-7.33 3.01 -7.66 2.02 -8 1 C-3.375 -1.125 -3.375 -1.125 0 0 Z " fill="#29283E" transform="translate(89,26)"/>
<path d="M0 0 C0.99 0 1.98 0 3 0 C2.8125 2.375 2.8125 2.375 2 5 C-0.5625 6.3125 -0.5625 6.3125 -3 7 C-3 6.34 -3 5.68 -3 5 C-2.34 5 -1.68 5 -1 5 C-0.67 3.35 -0.34 1.7 0 0 Z " fill="#ADD5E4" transform="translate(185,211)"/>
<path d="M0 0 C1.32 0 2.64 0 4 0 C3.75 1.875 3.75 1.875 3 4 C0.9375 5.25 0.9375 5.25 -1 6 C-1.33 5.01 -1.66 4.02 -2 3 C-1.34 3 -0.68 3 0 3 C0 2.01 0 1.02 0 0 Z " fill="#8CA7BC" transform="translate(97,206)"/>
<path d="M0 0 C-0.99 0.495 -0.99 0.495 -2 1 C-2 1.66 -2 2.32 -2 3 C-3.65 3 -5.3 3 -7 3 C-7 2.34 -7 1.68 -7 1 C-7.66 0.67 -8.32 0.34 -9 0 C-5.52176885 -1.15941038 -3.54104422 -0.70820884 0 0 Z " fill="#E89E3F" transform="translate(217,93)"/>
<path d="M0 0 C2.475 0.99 2.475 0.99 5 2 C5 2.66 5 3.32 5 4 C5.66 4.33 6.32 4.66 7 5 C5.68 5.33 4.36 5.66 3 6 C0 2.25 0 2.25 0 0 Z " fill="#7BC0DB" transform="translate(52,86)"/>
<path d="M0 0 C2.9555377 2.75170751 5.11563315 5.41970299 7 9 C7 9.66 7 10.32 7 11 C4 10 4 10 2.375 7.1875 C1.32007836 4.74199982 0.49954659 2.59764224 0 0 Z " fill="#E59C58" transform="translate(188,32)"/>
<path d="M0 0 C0.66 0.99 1.32 1.98 2 3 C1.01 3.33 0.02 3.66 -1 4 C-1.99 5.485 -1.99 5.485 -3 7 C-3.99 7 -4.98 7 -6 7 C-4.77065985 3.31197956 -3.06140622 2.27643027 0 0 Z " fill="#F48026" transform="translate(101,18)"/>
<path d="M0 0 C0.66 0.66 1.32 1.32 2 2 C1.625 4.625 1.625 4.625 1 7 C0.34 7 -0.32 7 -1 7 C-1.66 5.35 -2.32 3.7 -3 2 C-2.34 2 -1.68 2 -1 2 C-0.67 1.34 -0.34 0.68 0 0 Z " fill="#8EB1C3" transform="translate(148,210)"/>
<path d="M0 0 C0.33 0.99 0.66 1.98 1 3 C-0.75 3.6875 -0.75 3.6875 -3 4 C-5.25 2.5625 -5.25 2.5625 -7 1 C-4.53721199 -0.231394 -2.7204945 -0.07159196 0 0 Z " fill="#0A1730" transform="translate(137,137)"/>
<path d="M0 0 C1.65 0 3.3 0 5 0 C5.33 1.98 5.66 3.96 6 6 C3.37812506 4.95125002 2.20628639 4.35068687 0.75 1.875 C0.5025 1.25625 0.255 0.6375 0 0 Z " fill="#0E1639" transform="translate(118,114)"/>
<path d="M0 0 C4.46840411 0.49648935 5.68987756 0.68987756 9 4 C5.7 3.67 2.4 3.34 -1 3 C-0.67 2.01 -0.34 1.02 0 0 Z " fill="#1F2646" transform="translate(128,111)"/>
<path d="M0 0 C2.31 0.33 4.62 0.66 7 1 C6.67 1.99 6.34 2.98 6 4 C3.83125748 3.49396008 2.00032373 3.00016187 0 2 C0 1.34 0 0.68 0 0 Z " fill="#85C6DD" transform="translate(71,100)"/>
<path d="M0 0 C2.76276177 0.52268466 5.3260876 1.10869587 8 2 C8 2.99 8 3.98 8 5 C4.62496331 3.8141763 2.35277269 2.72426311 0 0 Z " fill="#CA8738" transform="translate(112,75)"/>
<path d="M0 0 C3.15330554 0.60694155 5.18888867 1.6416665 7.75 3.5625 C8.67039063 4.24505859 8.67039063 4.24505859 9.609375 4.94140625 C10.29773438 5.46541016 10.29773438 5.46541016 11 6 C10.01 6.495 10.01 6.495 9 7 C2.57142857 2.85714286 2.57142857 2.85714286 0 0 Z " fill="#E69D48" transform="translate(139,66)"/>
<path d="M0 0 C0 0.66 0 1.32 0 2 C-0.66 2 -1.32 2 -2 2 C-2 2.66 -2 3.32 -2 4 C-6.625 6.125 -6.625 6.125 -10 5 C-8.71186658 4.16121545 -7.41936744 3.32913217 -6.125 2.5 C-5.40570313 2.0359375 -4.68640625 1.571875 -3.9453125 1.09375 C-2 0 -2 0 0 0 Z " fill="#D7843A" transform="translate(90,43)"/>
<path d="M0 0 C1.11375 0.598125 2.2275 1.19625 3.375 1.8125 C4.00148437 2.14894531 4.62796875 2.48539063 5.2734375 2.83203125 C7 4 7 4 9 7 C5.56072421 5.7580393 2.74792181 4.44259716 0 2 C0 1.34 0 0.68 0 0 Z " fill="#404F6A" transform="translate(166,126)"/>
<path d="M0 0 C2.97 0.33 5.94 0.66 9 1 C9 1.99 9 2.98 9 4 C6.03 3.01 3.06 2.02 0 1 C0 0.67 0 0.34 0 0 Z " fill="#C5863A" transform="translate(151,84)"/>
<path d="M0 0 C3.26954202 0.56371414 4.82575883 1.49962266 7 4 C6.67 4.66 6.34 5.32 6 6 C4.125 5.8125 4.125 5.8125 2 5 C0.75 2.4375 0.75 2.4375 0 0 Z " fill="#E2B879" transform="translate(210,77)"/>
<path d="M0 0 C1.5 1.1875 1.5 1.1875 3 3 C3.1875 5.6875 3.1875 5.6875 3 8 C2.67 7.34 2.34 6.68 2 6 C1.01 6.33 0.02 6.66 -1 7 C-0.67 4.69 -0.34 2.38 0 0 Z " fill="#EF9D3D" transform="translate(195,43)"/>
<path d="M0 0 C1.98 0 3.96 0 6 0 C6 0.66 6 1.32 6 2 C4.02 2.66 2.04 3.32 0 4 C0 2.68 0 1.36 0 0 Z " fill="#2D2020" transform="translate(132,43)"/>
<path d="M0 0 C1.98 0.66 3.96 1.32 6 2 C6 2.66 6 3.32 6 4 C6.66 4.33 7.32 4.66 8 5 C5.69 4.67 3.38 4.34 1 4 C0.67 2.68 0.34 1.36 0 0 Z " fill="#3F2A28" transform="translate(108,37)"/>
<path d="M0 0 C1.65 0 3.3 0 5 0 C4.01 0.33 3.02 0.66 2 1 C2.99 2.65 3.98 4.3 5 6 C4.01 6 3.02 6 2 6 C0 3 0 3 0 0 Z " fill="#3C4055" transform="translate(77,21)"/>
<path d="M0 0 C0.33 0.66 0.66 1.32 1 2 C0.195625 2.61875 -0.60875 3.2375 -1.4375 3.875 C-4.03874519 5.74164041 -4.03874519 5.74164041 -5 8 C-5.66 8 -6.32 8 -7 8 C-6.875 6.25 -6.875 6.25 -6 4 C-2.9375 1.75 -2.9375 1.75 0 0 Z " fill="#DE9259" transform="translate(98,17)"/>
<path d="M0 0 C0.99 0.33 1.98 0.66 3 1 C2.34 4.3 1.68 7.6 1 11 C0.67 11 0.34 11 0 11 C0 7.37 0 3.74 0 0 Z " fill="#9BC0D6" transform="translate(70,203)"/>
<path d="M0 0 C0.66 0.33 1.32 0.66 2 1 C-0.97 3.475 -0.97 3.475 -4 6 C-4.33 5.01 -4.66 4.02 -5 3 C-2.625 1.4375 -2.625 1.4375 0 0 Z " fill="#DCEEF4" transform="translate(161,163)"/>
<path d="M0 0 C4.75 -0.125 4.75 -0.125 7 1 C6.67 1.99 6.34 2.98 6 4 C4.02 3.34 2.04 2.68 0 2 C0 1.34 0 0.68 0 0 Z " fill="#93C5D7" transform="translate(82,106)"/>
<path d="M0 0 C-0.33 0.66 -0.66 1.32 -1 2 C-3.31 2 -5.62 2 -8 2 C-6.14210462 -1.71579076 -3.44525918 -1.06921837 0 0 Z " fill="#2D3147" transform="translate(114,101)"/>
<path d="M0 0 C1.32 0.33 2.64 0.66 4 1 C4 2.65 4 4.3 4 6 C3.67 5.34 3.34 4.68 3 4 C2.01 4 1.02 4 0 4 C0 2.68 0 1.36 0 0 Z " fill="#EAA341" transform="translate(215,83)"/>
<path d="M0 0 C1.32 0.66 2.64 1.32 4 2 C0.25 5 0.25 5 -2 5 C-1.125 1.125 -1.125 1.125 0 0 Z " fill="#E19538" transform="translate(82,84)"/>
<path d="M0 0 C0.66 0.66 1.32 1.32 2 2 C-0.3125 4.0625 -0.3125 4.0625 -3 6 C-3.99 5.67 -4.98 5.34 -6 5 C-4.02 3.35 -2.04 1.7 0 0 Z " fill="#3A3A4C" transform="translate(74,41)"/>
</svg>
